<?xml version="1.0" encoding="UTF-8"?><svg id="_レイヤー_2" xmlns="http://www.w3.org/2000/svg" viewBox="0 0 250 80"><defs><style>.cls-1{fill:#fff;}.cls-2{fill:#5865e8;}</style></defs><g id="_レイヤー_1-2"><g><rect class="cls-2" width="250" height="80" rx="4.08" ry="4.08"/><g><path class="cls-1" d="M70.62,24.81c-3.05-1.43-6.31-2.47-9.72-3.06-.42,.76-.91,1.78-1.25,2.59-3.62-.55-7.21-.55-10.77,0-.34-.81-.84-1.83-1.26-2.59-3.41,.59-6.68,1.63-9.73,3.06-6.15,9.3-7.82,18.37-6.98,27.32,4.08,3.05,8.03,4.9,11.92,6.11,.96-1.32,1.82-2.73,2.55-4.21-1.4-.53-2.75-1.19-4.02-1.96,.34-.25,.67-.51,.99-.78,7.75,3.63,16.17,3.63,23.83,0,.32,.27,.65,.53,.99,.78-1.27,.77-2.62,1.43-4.03,1.96,.74,1.48,1.59,2.89,2.55,4.21,3.89-1.21,7.85-3.06,11.93-6.12,.98-10.37-1.67-19.35-7-27.32Zm-24.18,21.82c-2.33,0-4.24-2.17-4.24-4.82s1.87-4.83,4.24-4.83,4.28,2.17,4.24,4.83c0,2.65-1.87,4.82-4.24,4.82Zm15.65,0c-2.33,0-4.24-2.17-4.24-4.82s1.87-4.83,4.24-4.83,4.28,2.17,4.24,4.83c0,2.65-1.87,4.82-4.24,4.82Z"/><path class="cls-1" d="M94.02,31.06h10.12c2.44,0,4.5,.39,6.19,1.17,1.69,.78,2.95,1.86,3.79,3.25,.84,1.39,1.26,2.97,1.26,4.76s-.44,3.34-1.31,4.76c-.87,1.42-2.2,2.55-3.99,3.38-1.79,.83-4.01,1.25-6.66,1.25h-9.39V31.06Zm9.29,13.84c1.64,0,2.91-.42,3.79-1.26,.88-.84,1.32-1.98,1.32-3.44,0-1.34-.39-2.42-1.18-3.22-.79-.8-1.97-1.21-3.56-1.21h-3.16v9.12h2.8Z"/><path class="cls-1" d="M130.52,49.59c-1.4-.37-2.66-.91-3.79-1.62v-4.4c.85,.67,1.99,1.22,3.41,1.66,1.43,.43,2.81,.65,4.14,.65,.62,0,1.09-.08,1.41-.25,.32-.17,.48-.37,.48-.6,0-.27-.09-.48-.26-.66-.17-.18-.51-.33-1.01-.45l-3.11-.72c-1.78-.42-3.05-1.01-3.8-1.77-.75-.75-1.13-1.73-1.13-2.95,0-1.03,.33-1.92,.99-2.68,.66-.76,1.59-1.35,2.8-1.76,1.21-.42,2.63-.62,4.25-.62,1.45,0,2.78,.16,3.99,.48,1.21,.32,2.21,.72,3.01,1.22v4.16c-.82-.5-1.75-.89-2.82-1.18-1.06-.29-2.16-.44-3.28-.44-1.63,0-2.44,.28-2.44,.85,0,.27,.13,.46,.38,.59,.25,.13,.72,.27,1.39,.41l2.59,.48c1.69,.3,2.96,.83,3.79,1.58,.83,.75,1.25,1.86,1.25,3.33,0,1.61-.69,2.89-2.06,3.83-1.37,.95-3.32,1.42-5.85,1.42-1.49,0-2.93-.19-4.33-.56Z"/><path class="cls-1" d="M148.88,49.04c-1.49-.74-2.61-1.75-3.36-3.02-.75-1.27-1.13-2.7-1.13-4.3s.39-3.01,1.17-4.27c.78-1.25,1.92-2.24,3.42-2.95,1.5-.72,3.3-1.07,5.4-1.07,2.59,0,4.75,.56,6.46,1.67v4.85c-.6-.42-1.31-.77-2.11-1.03-.8-.27-1.66-.4-2.58-.4-1.61,0-2.86,.3-3.77,.9-.91,.6-1.36,1.39-1.36,2.36s.44,1.73,1.32,2.35c.88,.61,2.16,.92,3.84,.92,.86,0,1.72-.13,2.56-.38,.84-.26,1.56-.57,2.16-.94v4.69c-1.9,1.17-4.11,1.75-6.61,1.75-2.11,0-3.91-.38-5.4-1.12Z"/><path class="cls-1" d="M167.31,49.04c-1.5-.74-2.64-1.76-3.42-3.05-.79-1.29-1.18-2.73-1.18-4.32s.39-3.01,1.18-4.26c.79-1.25,1.92-2.22,3.41-2.93,1.49-.71,3.26-1.06,5.32-1.06s3.83,.35,5.32,1.06c1.49,.71,2.62,1.68,3.4,2.92,.78,1.24,1.17,2.66,1.17,4.27s-.39,3.03-1.17,4.32c-.78,1.29-1.92,2.31-3.41,3.05-1.5,.74-3.26,1.11-5.31,1.11s-3.81-.37-5.3-1.11Zm7.88-4.7c.63-.64,.95-1.5,.95-2.56s-.31-1.91-.95-2.53c-.63-.63-1.49-.94-2.58-.94s-1.97,.31-2.61,.94c-.63,.63-.94,1.47-.94,2.53s.31,1.91,.94,2.56,1.5,.97,2.61,.97c1.09,0,1.95-.33,2.58-.97Z"/><path class="cls-1" d="M198.09,34.4v5.73c-.66-.44-1.51-.66-2.57-.66-1.38,0-2.45,.43-3.19,1.28-.75,.86-1.11,2.19-1.11,3.99v4.88h-6.36v-15.51h6.23v4.93c.34-1.8,.9-3.13,1.67-3.99,.77-.86,1.76-1.28,2.97-1.28,.91,0,1.7,.21,2.36,.64Z"/><path class="cls-1" d="M219.2,30.53v19.09h-6.36v-3.47c-.54,1.31-1.35,2.3-2.45,2.98-1.1,.68-2.45,1.02-4.06,1.02-1.44,0-2.69-.36-3.76-1.07-1.07-.72-1.9-1.7-2.48-2.94-.58-1.25-.87-2.66-.87-4.23-.02-1.62,.29-3.08,.92-4.37,.63-1.29,1.52-2.3,2.67-3.02,1.15-.72,2.46-1.09,3.93-1.09,3.03,0,5.06,1.34,6.1,4.03v-6.92h6.36Zm-7.3,13.7c.65-.64,.97-1.48,.97-2.5s-.31-1.8-.94-2.41c-.63-.62-1.49-.93-2.58-.93s-1.93,.31-2.57,.94c-.64,.63-.96,1.44-.96,2.45s.32,1.83,.96,2.47c.64,.64,1.49,.95,2.54,.95,1.07,0,1.93-.33,2.58-.97Z"/><path class="cls-1" d="M120.73,35.76c1.75,0,3.17-1.3,3.17-2.91s-1.42-2.91-3.17-2.91-3.17,1.3-3.17,2.91,1.42,2.91,3.17,2.91Z"/><path class="cls-1" d="M117.56,37.77c1.94,.86,4.35,.89,6.34,0v11.94h-6.34v-11.94Z"/></g></g></g></svg>