<?xml version="1.0" encoding="utf-8"?>
<!-- Generator: Adobe Illustrator 26.5.0, SVG Export Plug-In . SVG Version: 6.00 Build 0)  -->
<svg version="1.1" id="レイヤー_1" xmlns="http://www.w3.org/2000/svg" xmlns:xlink="http://www.w3.org/1999/xlink" x="0px"
	 y="0px" viewBox="0 0 250 80" style="enable-background:new 0 0 250 80;" xml:space="preserve">
<style type="text/css">
	.st0{fill:#151013;}
	.st1{fill:#FFFFFF;}
	.st2{fill-rule:evenodd;clip-rule:evenodd;fill:#FFFFFF;}
</style>
<g>
	<g>
		<path class="st0" d="M250,75.9c0,2.2-1.8,4.1-4.1,4.1H4.1C1.8,80,0,78.2,0,75.9V4.1C0,1.8,1.8,0,4.1,0h241.8
			c2.2,0,4.1,1.8,4.1,4.1V75.9z"/>
	</g>
</g>
<g>
	<g>
		<path class="st1" d="M123.7,37.6h-10.1c-0.3,0-0.5,0.2-0.5,0.5v5c0,0.3,0.2,0.5,0.5,0.5h4v6.2c0,0-0.9,0.3-3.3,0.3
			c-2.9,0-6.9-1.1-6.9-10c0-8.9,4.2-10.1,8.2-10.1c3.4,0,4.9,0.6,5.8,0.9c0.3,0.1,0.6-0.2,0.6-0.5l1.1-4.8c0-0.1,0-0.3-0.2-0.4
			c-0.4-0.3-2.7-1.6-8.6-1.6c-6.8,0-13.7,2.9-13.7,16.7c0,13.9,8,15.9,14.7,15.9c5.6,0,8.9-2.4,8.9-2.4c0.1-0.1,0.2-0.3,0.2-0.4
			V38.1C124.2,37.9,124,37.6,123.7,37.6z"/>
		<path class="st1" d="M176,25.3c0-0.3-0.2-0.5-0.5-0.5h-5.7c-0.3,0-0.5,0.2-0.5,0.5c0,0,0,11,0,11h-8.9v-11c0-0.3-0.2-0.5-0.5-0.5
			h-5.7c-0.3,0-0.5,0.2-0.5,0.5v29.9c0,0.3,0.2,0.5,0.5,0.5h5.7c0.3,0,0.5-0.2,0.5-0.5V42.4h8.9c0,0,0,12.8,0,12.8
			c0,0.3,0.2,0.5,0.5,0.5h5.7c0.3,0,0.5-0.2,0.5-0.5V25.3z"/>
		<g>
			<g>
				<path class="st1" d="M134.5,29.3c0-2.1-1.6-3.7-3.7-3.7c-2,0-3.7,1.7-3.7,3.7c0,2.1,1.7,3.7,3.7,3.7
					C132.8,33,134.5,31.3,134.5,29.3z"/>
				<path class="st1" d="M134.1,48.9c0-0.8,0-13.8,0-13.8c0-0.3-0.2-0.5-0.5-0.5h-5.7c-0.3,0-0.5,0.3-0.5,0.5c0,0,0,16.6,0,19.8
					c0,0.6,0.4,0.8,0.8,0.8c0,0,2.4,0,5.1,0c0.6,0,0.7-0.3,0.7-0.8C134.1,53.9,134.1,49.7,134.1,48.9z"/>
			</g>
		</g>
		<path class="st1" d="M197.7,34.7H192c-0.3,0-0.5,0.2-0.5,0.5v14.7c0,0-1.4,1.1-3.5,1.1c-2,0-2.6-0.9-2.6-2.9c0-2,0-12.8,0-12.8
			c0-0.3-0.2-0.5-0.5-0.5h-5.8c-0.3,0-0.5,0.2-0.5,0.5c0,0,0,7.8,0,13.8c0,5.9,3.3,7.4,7.9,7.4c3.7,0,6.8-2.1,6.8-2.1
			s0.1,1.1,0.2,1.2c0.1,0.1,0.2,0.3,0.4,0.3l3.7,0c0.3,0,0.5-0.2,0.5-0.5l0-20.1C198.2,34.9,198,34.7,197.7,34.7z"/>
		<path class="st1" d="M213.2,34c-3.2,0-5.4,1.4-5.4,1.4V25.3c0-0.3-0.2-0.5-0.5-0.5h-5.7c-0.3,0-0.5,0.2-0.5,0.5v29.9
			c0,0.3,0.2,0.5,0.5,0.5c0,0,4,0,4,0c0.2,0,0.3-0.1,0.4-0.3c0.1-0.2,0.2-1.4,0.2-1.4s2.3,2.2,6.8,2.2c5.2,0,8.2-2.6,8.2-11.9
			C221.2,35.2,216.4,34,213.2,34z M211,50.9c-2-0.1-3.3-1-3.3-1v-9.5c0,0,1.3-0.8,2.9-1c2-0.2,4,0.4,4,5.3
			C214.6,49.9,213.7,50.9,211,50.9z"/>
		<path class="st1" d="M150.5,34.6h-4.3c0,0,0-5.7,0-5.7c0-0.2-0.1-0.3-0.4-0.3H140c-0.2,0-0.3,0.1-0.3,0.3v5.9c0,0-2.9,0.7-3.1,0.8
			c-0.2,0.1-0.3,0.2-0.3,0.5v3.7c0,0.3,0.2,0.5,0.5,0.5h3c0,0,0,3.8,0,8.8c0,6.6,4.6,7.2,7.7,7.2c1.4,0,3.1-0.5,3.4-0.6
			c0.2-0.1,0.3-0.2,0.3-0.4l0-4c0-0.3-0.2-0.5-0.5-0.5c-0.2,0-0.9,0.1-1.5,0.1c-2.1,0-2.8-1-2.8-2.2c0-1.3,0-8.4,0-8.4h4.3
			c0.3,0,0.5-0.2,0.5-0.5v-4.6C151,34.9,150.8,34.6,150.5,34.6z"/>
	</g>
	<g>
		<path class="st2" d="M51.8,17.5c-12.7,0-23,10.3-23,23c0,10.2,6.6,18.8,15.7,21.8c1.2,0.2,1.6-0.5,1.6-1.1c0-0.5,0-2.4,0-4.3
			c-6.4,1.4-7.8-2.7-7.8-2.7c-1-2.7-2.6-3.4-2.6-3.4c-2.1-1.4,0.2-1.4,0.2-1.4c2.3,0.2,3.5,2.4,3.5,2.4c2.1,3.5,5.4,2.5,6.7,1.9
			c0.2-1.5,0.8-2.5,1.5-3.1c-5.1-0.6-10.5-2.6-10.5-11.4c0-2.5,0.9-4.6,2.4-6.2c-0.2-0.6-1-2.9,0.2-6.1c0,0,1.9-0.6,6.3,2.4
			c1.8-0.5,3.8-0.8,5.8-0.8c2,0,3.9,0.3,5.8,0.8c4.4-3,6.3-2.4,6.3-2.4c1.3,3.2,0.5,5.5,0.2,6.1c1.5,1.6,2.4,3.7,2.4,6.2
			c0,8.8-5.4,10.8-10.5,11.4c0.8,0.7,1.6,2.1,1.6,4.3c0,3.1,0,5.6,0,6.3c0,0.6,0.4,1.3,1.6,1.1c9.1-3,15.7-11.7,15.7-21.8
			C74.9,27.9,64.5,17.5,51.8,17.5z"/>
		<path class="st1" d="M37.5,50.6c-0.1,0.1-0.2,0.1-0.4,0.1c-0.2-0.1-0.3-0.2-0.2-0.3c0-0.1,0.2-0.2,0.4-0.1
			C37.5,50.3,37.6,50.5,37.5,50.6L37.5,50.6z M37.2,50.4"/>
		<path class="st1" d="M38.5,51.6c-0.1,0.1-0.3,0.1-0.5-0.1c-0.2-0.2-0.2-0.4-0.1-0.5c0.1-0.1,0.3-0.1,0.5,0.1
			C38.5,51.3,38.6,51.5,38.5,51.6L38.5,51.6z M38.2,51.4"/>
		<path class="st1" d="M39.4,53c-0.1,0.1-0.4,0-0.5-0.2c-0.1-0.2-0.1-0.5,0-0.5c0.1-0.1,0.4,0,0.5,0.2C39.5,52.6,39.5,52.9,39.4,53
			L39.4,53z M39.4,53"/>
		<path class="st1" d="M40.6,54.3c-0.1,0.1-0.4,0.1-0.6-0.1c-0.2-0.2-0.3-0.4-0.1-0.6c0.1-0.1,0.4-0.1,0.6,0.1
			C40.7,53.8,40.7,54.1,40.6,54.3L40.6,54.3z M40.6,54.3"/>
		<path class="st1" d="M42.3,55c-0.1,0.2-0.3,0.3-0.6,0.2c-0.3-0.1-0.4-0.3-0.4-0.5c0.1-0.2,0.3-0.3,0.6-0.2
			C42.2,54.6,42.4,54.8,42.3,55L42.3,55z M42.3,55"/>
		<path class="st1" d="M44.2,55.1c0,0.2-0.2,0.3-0.5,0.4c-0.3,0-0.5-0.1-0.5-0.3c0-0.2,0.2-0.3,0.5-0.4C44,54.8,44.2,54.9,44.2,55.1
			L44.2,55.1z M44.2,55.1"/>
		<path class="st1" d="M46,54.8c0,0.2-0.2,0.4-0.4,0.4c-0.3,0-0.5-0.1-0.5-0.2c0-0.2,0.2-0.4,0.4-0.4C45.7,54.5,45.9,54.6,46,54.8
			L46,54.8z M46,54.8"/>
	</g>
</g>
</svg>
