<?xml version="1.0" encoding="utf-8"?>
<!-- Generator: Adobe Illustrator 26.5.0, SVG Export Plug-In . SVG Version: 6.00 Build 0)  -->
<svg version="1.1" id="_レイヤー_2" xmlns="http://www.w3.org/2000/svg" xmlns:xlink="http://www.w3.org/1999/xlink" x="0px"
	 y="0px" viewBox="0 0 100 100" style="enable-background:new 0 0 100 100;" xml:space="preserve">
<style type="text/css">
	.st0{fill:#7D1A21;}
</style>
<g id="_レイヤー_1-2">
	<g>
		<path class="st0" d="M64.1,39.3l-4.8-2c-1.1,1.6-2.2,3.2-3.4,4.8l6.4,2.7v42.7L37.7,77.1v-29c-1.1-1.4-2.3-3-3.6-4.7v33.6L10.7,87
			V44.3l18.5-7.7c-1.2-1.7-2.3-3.4-3.1-4.9L5,40.5v55l31-13l28.1,11.8l30.9-13v-55L64.1,39.3z M89.3,77.6l-23.5,9.8V44.7l23.5-9.8
			V77.6L89.3,77.6z"/>
		<path class="st0" d="M60.3,20.2c0,13.7-15.8,29.4-15.8,29.4S28.7,34.3,28.7,20.2c0-8.7,7.1-15.8,15.8-15.8S60.3,11.5,60.3,20.2z
			 M44.5,14.8c-3,0-5.4,2.4-5.4,5.4s2.4,5.4,5.4,5.4s5.4-2.4,5.4-5.4S47.5,14.8,44.5,14.8z"/>
	</g>
</g>
</svg>
