<?xml version="1.0" encoding="utf-8"?>
<!-- Generator: Adobe Illustrator 26.5.0, SVG Export Plug-In . SVG Version: 6.00 Build 0)  -->
<svg version="1.1" id="_レイヤー_2" xmlns="http://www.w3.org/2000/svg" xmlns:xlink="http://www.w3.org/1999/xlink" x="0px"
	 y="0px" viewBox="0 0 100 100" style="enable-background:new 0 0 100 100;" xml:space="preserve">
<style type="text/css">
	.st0{fill:#7D1A21;}
</style>
<g id="_レイヤー_1-2">
	<g>
		<path class="st0" d="M21.9,62.9h56.2c2.2,0,3.9-1.7,3.9-3.9V26c0-2.1-1.7-3.9-3.9-3.9H21.9c-2.2,0-3.9,1.7-3.9,3.9V59
			C18,61.2,19.8,62.9,21.9,62.9L21.9,62.9z M23.9,27.3h52.1v29.5H23.9V27.3z"/>
		<path class="st0" d="M86.5,73.7l-6.9-6.2c-0.4-0.4-1.1-0.6-1.8-0.6H22.2c-0.7,0-1.3,0.2-1.8,0.6l-6.9,6.2
			c-0.4,0.3-0.6,0.8-0.6,1.2V77c0,0.5,0.5,0.9,1.2,0.9h71.8c0.7,0,1.2-0.4,1.2-0.9v-2.1C87.1,74.4,86.9,74,86.5,73.7z M42.1,74.4
			l2-2.7h12.7l2,2.7H42.1L42.1,74.4z"/>
	</g>
</g>
</svg>
