<?xml version="1.0" encoding="utf-8"?>
<!-- Generator: Adobe Illustrator 26.5.0, SVG Export Plug-In . SVG Version: 6.00 Build 0)  -->
<svg version="1.1" id="_レイヤー_2" xmlns="http://www.w3.org/2000/svg" xmlns:xlink="http://www.w3.org/1999/xlink" x="0px"
	 y="0px" viewBox="0 0 100 100" style="enable-background:new 0 0 100 100;" xml:space="preserve">
<style type="text/css">
	.st0{fill:#891C23;}
</style>
<g id="_レイヤー_1-2">
	<g>
		<polygon class="st0" points="66,76.2 19.9,76.2 19.9,41.6 37.6,41.6 37.6,23.8 66,23.8 66,28.4 70.7,23.9 70.7,19.2 37.6,19.2 
			19.9,37 15.2,41.6 15.2,80.8 70.7,80.8 70.7,53.6 66,58.4 		"/>
		<path class="st0" d="M84.3,31.4l-7-7c-0.6-0.6-1.6-0.6-2.2,0L45.7,52.6c-0.2,0.2-0.3,0.4-0.4,0.7L41.7,65c-0.4,1.2,0.8,2.3,2,2
			l12.1-3.7l28.5-29.7C84.9,33,84.9,32,84.3,31.4L84.3,31.4z M48.4,62.7l-2.3-2.5l1.6-5.2l4,2.1l2.1,4L48.4,62.7L48.4,62.7z
			 M79.9,30.3L54.8,55.5l-1.6-1.6l25.2-25.1L79.9,30.3L79.9,30.3L79.9,30.3z"/>
	</g>
</g>
</svg>
