<?xml version="1.0" encoding="utf-8"?>
<!-- Generator: Adobe Illustrator 26.5.0, SVG Export Plug-In . SVG Version: 6.00 Build 0)  -->
<svg version="1.1" id="_レイヤー_2" xmlns="http://www.w3.org/2000/svg" xmlns:xlink="http://www.w3.org/1999/xlink" x="0px"
	 y="0px" viewBox="0 0 100 100" style="enable-background:new 0 0 100 100;" xml:space="preserve">
<style type="text/css">
	.st0{fill:#7D1A21;}
</style>
<g id="_レイヤー_1-2">
	<path class="st0" d="M79.4,57.1c-0.6-1.4-1.4-2.5-2.2-3.5c-0.4-0.5-0.8-0.9-1.3-1.4c0.1-0.5,0-1.1-0.4-1.5l0,0c0,0-0.1-0.2-0.1-0.4
		s-0.1-0.6-0.1-1c0-1,0.1-2.5,0.1-4.1c0-2.1-0.2-4.5-1-7.1c-0.8-2.6-2.3-5.2-4.9-7.6c-3-2.9-6.6-4.4-10-5.3c-0.1,0-0.2-0.1-0.3-0.1
		c0.6-0.9,1-2,1-3.2c0-3.2-2.6-5.7-5.7-5.7c-1.8,0-3.4,0.9-4.5,2.2c-1-1.3-2.7-2.2-4.5-2.2c-3.2,0-5.7,2.6-5.7,5.7
		c0,1.2,0.4,2.3,1,3.2c-0.1,0-0.2,0.1-0.3,0.1c-3.4,0.8-7,2.4-10,5.3c-2.6,2.4-4.1,5.1-4.9,7.6c-0.8,2.5-1,5-1,7.1
		c0,1.6,0.1,3.1,0.1,4.1c0,0.5,0,1-0.1,1.2c0,0.1-0.1,0.2-0.1,0.2l0,0l0,0c-0.4,0.4-0.5,1-0.4,1.5c-0.1,0.1-0.3,0.3-0.4,0.4
		c-1.2,1.2-2.3,2.6-3.1,4.4c-0.8,1.9-1.2,4.2-1.2,7.2c0,3.1,0.8,6,2.3,8.4c2.3,3.7,6.1,6.4,10.9,8.2c4.8,1.8,10.8,2.7,17.4,2.7
		c8.9,0,16.5-1.6,21.9-4.8c2.7-1.6,4.9-3.7,6.4-6.1c1.5-2.4,2.3-5.3,2.3-8.4C80.6,61.2,80.2,58.9,79.4,57.1z M54.5,19.7
		c1.3,0,2.3,1,2.3,2.3c0,1.3-1,2.3-2.3,2.3c-1.3,0-2.3-1-2.3-2.3C52.2,20.8,53.2,19.7,54.5,19.7z M45.5,19.7c1.3,0,2.3,1,2.3,2.3
		c0,1.3-1,2.3-2.3,2.3c-1.3,0-2.3-1-2.3-2.3C43.2,20.8,44.3,19.7,45.5,19.7z M72,47.9c-0.9-1.2-1.7-2.7-2.4-4.5
		c-1.6-4.2-4-7.2-7.2-9c-3.3-1.8-7.3-2.5-12.3-2.5c-5,0-9.1,0.7-12.3,2.5c-3.3,1.8-5.6,4.8-7.2,9c-0.7,1.9-1.6,3.3-2.4,4.5
		c0-0.8-0.1-1.7-0.1-2.6c0-1.9,0.2-3.9,0.8-6c0.7-2.1,1.9-4.2,4-6.2c2.5-2.4,5.5-3.7,8.5-4.4c3-0.7,6.1-0.9,8.7-0.9
		c2.6,0,5.7,0.1,8.7,0.9c3,0.8,6,2.1,8.5,4.4c2.2,2,3.3,4.1,4,6.2c0.7,2.1,0.8,4.1,0.8,6C72,46.2,72,47,72,47.9L72,47.9z"/>
</g>
</svg>
