<?xml version="1.0" encoding="utf-8"?>
<!-- Generator: Adobe Illustrator 26.5.0, SVG Export Plug-In . SVG Version: 6.00 Build 0)  -->
<svg version="1.1" id="_レイヤー_2" xmlns="http://www.w3.org/2000/svg" xmlns:xlink="http://www.w3.org/1999/xlink" x="0px"
	 y="0px" viewBox="0 0 100 100" style="enable-background:new 0 0 100 100;" xml:space="preserve">
<style type="text/css">
	.st0{fill:#891C23;}
</style>
<g id="_レイヤー_1-2">
	<g>
		<path class="st0" d="M76.4,57.2c-0.5-1.1-1.2-2-2.2-2.7c-1-0.7-2.2-1.1-3.5-1.1H58.9c-0.1,0-0.2,0-0.2-0.1
			c-0.2-0.1-0.3-0.2-0.5-0.4c-0.1-0.2-0.3-0.4-0.4-0.7c-0.2-0.4-0.4-1-0.5-1.7s-0.2-1.5-0.2-2.4c0-1.7,0.2-3.7,0.7-5.9
			c0.4-2.1,1.1-4,1.7-5.9c0.3-1,0.6-1.9,0.8-2.9c0.2-1,0.3-2,0.3-3.1c0-1.5-0.3-2.9-0.8-4.1c-0.8-1.9-2.2-3.5-3.8-4.7
			c-1.7-1.2-3.7-1.8-5.9-1.8c-1.5,0-2.9,0.3-4.1,0.8c-1.9,0.8-3.5,2.1-4.7,3.9c-1.1,1.7-1.8,3.8-1.8,5.9c0,1.1,0.1,2.1,0.3,3.1
			c0.3,1.5,0.8,2.9,1.2,4.4c0.5,1.5,0.9,2.9,1.2,4.5c0.5,2.2,0.7,4.2,0.7,5.9c0,0.9-0.1,1.7-0.2,2.4c-0.1,0.5-0.2,1-0.4,1.3
			c-0.1,0.3-0.2,0.5-0.3,0.7c-0.2,0.3-0.3,0.4-0.5,0.5c-0.1,0.1-0.2,0.1-0.4,0.2H29.4c-0.9,0-1.7,0.2-2.4,0.5
			c-1.1,0.5-2.1,1.2-2.7,2.2c-0.7,1-1.1,2.2-1.1,3.5v12.5h53.7V59.6C76.8,58.8,76.7,57.9,76.4,57.2L76.4,57.2z M42.6,30.4
			c0-1,0.2-2,0.6-2.9c0.6-1.3,1.5-2.4,2.7-3.2s2.6-1.3,4.1-1.3c1,0,2,0.2,2.9,0.6c1.3,0.6,2.5,1.5,3.2,2.7s1.3,2.6,1.3,4.1
			c0,0.8-0.1,1.6-0.3,2.4c-0.2,1.2-0.7,2.6-1.1,4.1c-0.5,1.5-1,3.1-1.3,4.8c-0.5,2.4-0.8,4.6-0.8,6.6c0,1.1,0.1,2.1,0.2,3
			c0.1,0.7,0.3,1.3,0.5,1.9c0.1,0.4,0.3,0.8,0.5,1.1H44.8c0.1-0.2,0.2-0.4,0.3-0.6c0.3-0.8,0.6-1.6,0.7-2.5s0.2-1.9,0.2-2.9
			c0-2-0.2-4.2-0.8-6.6c-0.5-2.3-1.2-4.4-1.8-6.2c-0.3-0.9-0.5-1.8-0.7-2.6S42.6,31.2,42.6,30.4L42.6,30.4z M73.6,68.8H26.4v-9.2
			c0-0.4,0.1-0.8,0.2-1.1c0.2-0.5,0.6-1,1.1-1.3c0.5-0.3,1-0.5,1.6-0.5h41.3c0.4,0,0.8,0.1,1.1,0.2c0.5,0.2,1,0.6,1.3,1.1
			c0.3,0.5,0.5,1,0.5,1.6L73.6,68.8C73.6,68.8,73.6,68.8,73.6,68.8z"/>
		<rect x="27.4" y="75.7" class="st0" width="45.2" height="4.5"/>
	</g>
</g>
</svg>
