<?xml version="1.0" encoding="utf-8"?>
<!-- Generator: Adobe Illustrator 26.5.0, SVG Export Plug-In . SVG Version: 6.00 Build 0)  -->
<svg version="1.1" id="_レイヤー_2" xmlns="http://www.w3.org/2000/svg" xmlns:xlink="http://www.w3.org/1999/xlink" x="0px"
	 y="0px" viewBox="0 0 100 100" style="enable-background:new 0 0 100 100;" xml:space="preserve">
<style type="text/css">
	.st0{fill:#7D1A21;}
	.st1{fill:#FFFFFF;}
</style>
<g id="_レイヤー_1-2">
	<g>
		<path class="st0" d="M93.3,60.5c-0.9-2-2-3.7-3.3-5.1c-0.6-0.7-1.2-1.4-1.9-2c0.2-0.8,0-1.6-0.6-2.2h0c0,0-0.1-0.2-0.1-0.6
			c-0.1-0.4-0.1-0.9-0.1-1.5c0-1.5,0.2-3.6,0.2-6c0-3.1-0.2-6.7-1.5-10.4c-1.2-3.8-3.5-7.7-7.2-11.2c-4.5-4.2-9.7-6.5-14.8-7.8
			c-0.2,0-0.3-0.1-0.5-0.1c0.9-1.4,1.4-3,1.4-4.7c0-4.7-3.8-8.4-8.4-8.4c-2.7,0-5.1,1.3-6.6,3.2c-1.5-2-3.9-3.2-6.6-3.2
			c-4.7,0-8.4,3.8-8.4,8.4c0,1.8,0.5,3.4,1.5,4.7c-0.2,0-0.3,0.1-0.5,0.1c-5.1,1.2-10.3,3.6-14.8,7.8c-3.8,3.5-6,7.4-7.2,11.2
			c-1.2,3.8-1.5,7.3-1.5,10.4c0,2.4,0.1,4.5,0.1,6c0,0.8-0.1,1.4-0.1,1.8c0,0.2-0.1,0.3-0.1,0.3l0,0v0c-0.6,0.6-0.7,1.4-0.6,2.2
			c-0.2,0.2-0.4,0.4-0.6,0.7c-1.7,1.8-3.3,3.8-4.5,6.5c-1.2,2.7-1.8,6.1-1.8,10.6c0,4.7,1.2,8.8,3.4,12.5c3.3,5.4,8.9,9.4,16,12.1
			c7.1,2.7,15.9,4,25.7,4c13.1,0,24.3-2.4,32.3-7.1c4-2.4,7.2-5.4,9.5-9s3.4-7.8,3.4-12.5C95.2,66.6,94.5,63.2,93.3,60.5L93.3,60.5z
			 M56.6,5.4c1.9,0,3.4,1.5,3.4,3.4c0,1.9-1.5,3.4-3.4,3.4c-1.9,0-3.4-1.5-3.4-3.4S54.7,5.4,56.6,5.4z M43.4,5.4
			c1.9,0,3.4,1.5,3.4,3.4c0,1.9-1.5,3.4-3.4,3.4c-1.9,0-3.4-1.5-3.4-3.4S41.5,5.4,43.4,5.4z M82.4,46.9c-1.3-1.8-2.5-3.9-3.6-6.7
			C76.5,34,73,29.6,68.2,27c-4.8-2.7-10.8-3.6-18.2-3.6s-13.4,1-18.2,3.6c-4.8,2.7-8.3,7-10.6,13.2c-1.1,2.8-2.3,4.9-3.6,6.7
			c-0.1-1.2-0.1-2.5-0.1-3.9c0-2.8,0.2-5.8,1.2-8.8c1-3,2.7-6.1,5.9-9.1c3.7-3.5,8.1-5.4,12.5-6.6c4.5-1.1,9-1.3,12.9-1.3
			s8.4,0.2,12.9,1.3s8.8,3.1,12.5,6.5c3.2,3,4.9,6.1,5.9,9.1s1.2,6.1,1.2,8.8C82.5,44.4,82.5,45.7,82.4,46.9L82.4,46.9z"/>
		<g>
			<path class="st1" d="M21.5,65.2c0-1.4,0.2-2.7,0.7-3.9c0.5-1.2,1.1-2.2,2-3s1.9-1.5,3.1-1.9s2.5-0.7,3.9-0.7s2.7,0.2,3.9,0.7
				s2.2,1.1,3.1,1.9s1.5,1.8,2,3s0.7,2.5,0.7,3.9s-0.2,2.7-0.7,3.9c-0.5,1.2-1.2,2.2-2,3c-0.9,0.8-1.9,1.4-3.1,1.9s-2.5,0.7-3.9,0.7
				s-2.7-0.2-3.9-0.7s-2.2-1.1-3.1-1.9c-0.9-0.8-1.5-1.8-2-3S21.5,66.6,21.5,65.2z M25.6,65.2c0,0.8,0.1,1.6,0.4,2.3
				s0.6,1.3,1.1,1.8s1.1,0.9,1.8,1.2c0.7,0.3,1.5,0.4,2.3,0.4c0.8,0,1.6-0.1,2.3-0.4s1.3-0.7,1.8-1.2c0.5-0.5,0.9-1.1,1.1-1.8
				c0.3-0.7,0.4-1.5,0.4-2.3s-0.1-1.6-0.4-2.3s-0.6-1.3-1.1-1.8c-0.5-0.5-1.1-0.9-1.8-1.2c-0.7-0.3-1.5-0.4-2.3-0.4
				s-1.6,0.1-2.3,0.4s-1.3,0.7-1.8,1.2c-0.5,0.5-0.9,1.1-1.1,1.8C25.8,63.6,25.6,64.4,25.6,65.2z"/>
			<path class="st1" d="M46.2,56.2h12v3.6h-8.1v3.6h7.5v3.6h-7.5v7h-4V56.2L46.2,56.2z"/>
			<path class="st1" d="M63.8,56.2h12v3.6h-8.1v3.6h7.5v3.6h-7.5v7h-4L63.8,56.2L63.8,56.2z"/>
		</g>
	</g>
</g>
</svg>
