<?xml version="1.0" encoding="utf-8"?>
<!-- Generator: Adobe Illustrator 26.5.0, SVG Export Plug-In . SVG Version: 6.00 Build 0)  -->
<svg version="1.1" id="_レイヤー_2" xmlns="http://www.w3.org/2000/svg" xmlns:xlink="http://www.w3.org/1999/xlink" x="0px"
	 y="0px" viewBox="0 0 100 100" style="enable-background:new 0 0 100 100;" xml:space="preserve">
<style type="text/css">
	.st0{fill:#7D1A21;}
</style>
<g id="_レイヤー_1-2">
	<g>
		<path class="st0" d="M11.3,58.7c4.9,0,8.8-3.9,8.8-8.8s-3.9-8.8-8.8-8.8s-8.8,4-8.8,8.8S6.4,58.7,11.3,58.7z"/>
		<path class="st0" d="M11.3,61.7c-4.7,0-8.6,3.8-8.6,8.6V81h10.2l6.6-13.4C18.3,64.1,15.1,61.7,11.3,61.7L11.3,61.7z"/>
		<path class="st0" d="M25.7,41.8c4.4,0,7.9-3.5,7.9-7.9s-3.5-7.9-7.9-7.9s-7.9,3.5-7.9,7.9S21.3,41.8,25.7,41.8z"/>
		<path class="st0" d="M18,60.1v1.7h4.3l7.8-15.9c-1.2-0.9-2.7-1.4-4.4-1.4c-1.1,0-2.2,0.2-3.1,0.6c0.6,1.5,0.9,3,0.9,4.7
			C23.5,54.2,21.3,57.9,18,60.1L18,60.1z"/>
		<path class="st0" d="M49.1,26.6c4.4,0,7.9-3.5,7.9-7.9s-3.5-7.9-7.9-7.9s-7.9,3.5-7.9,7.9S44.7,26.6,49.1,26.6z"/>
		<path class="st0" d="M49.1,29.3c-4.3,0-7.7,3.5-7.7,7.7v3.4h15.4V37C56.8,32.7,53.3,29.3,49.1,29.3L49.1,29.3z"/>
		<path class="st0" d="M88.7,58.7c4.9,0,8.8-3.9,8.8-8.8s-3.9-8.8-8.8-8.8s-8.8,3.9-8.8,8.8S83.8,58.7,88.7,58.7z"/>
		<path class="st0" d="M88.7,61.7c-3.8,0-7,2.4-8.2,5.9L87.1,81h10.2V70.3C97.3,65.5,93.5,61.7,88.7,61.7z"/>
		<path class="st0" d="M74.3,41.8c4.4,0,7.9-3.5,7.9-7.9s-3.5-7.9-7.9-7.9s-7.9,3.5-7.9,7.9S70,41.8,74.3,41.8z"/>
		<path class="st0" d="M74.3,44.5c-1.6,0-3.1,0.5-4.4,1.4l7.8,15.9H82v-1.7c-3.4-2.2-5.6-6-5.6-10.2c0-1.7,0.3-3.2,0.9-4.7
			C76.5,44.8,75.4,44.6,74.3,44.5L74.3,44.5z"/>
		<path class="st0" d="M35.2,43.3L14.8,84.9v4.3h70.4v-4.3L64.8,43.3C64.8,43.3,35.2,43.3,35.2,43.3z M39.8,76.5H28.5l3.3-7.7h9.3
			L39.8,76.5L39.8,76.5z M43.4,60.3h-8.9l2.6-6h7.3L43.4,60.3z M71.3,76.5H60l-1.3-7.7H68L71.3,76.5z M56.3,60.3l-1-6h7.3l2.6,6
			H56.3z"/>
	</g>
</g>
</svg>
