<?xml version="1.0" encoding="utf-8"?>
<!-- Generator: Adobe Illustrator 26.5.0, SVG Export Plug-In . SVG Version: 6.00 Build 0)  -->
<svg version="1.1" id="_レイヤー_2" xmlns="http://www.w3.org/2000/svg" xmlns:xlink="http://www.w3.org/1999/xlink" x="0px"
	 y="0px" viewBox="0 0 100 100" style="enable-background:new 0 0 100 100;" xml:space="preserve">
<style type="text/css">
	.st0{fill:#891C23;}
</style>
<g id="_レイヤー_1-2">
	<g>
		<g>
			<path class="st0" d="M23.6,23.2c4,0,7.3-3.2,7.3-7.3s-3.2-7.3-7.3-7.3s-7.3,3.2-7.3,7.3C16.4,19.9,19.6,23.2,23.6,23.2z"/>
			<path class="st0" d="M48.1,39.1l11.7-5.6c1.6-0.7,2.3-2.5,1.7-4.1c-0.7-1.6-2.5-2.3-4.1-1.6l-10.5,3.6l-9.5-3.3
				c-1.8-0.6-3.7-1-5.7-1l-7.4-0.2c-7.9,0-14.9,2.6-16.6,11.4L2.3,60.5c-0.4,1.7,0.7,3.3,2.4,3.7c1.7,0.4,3.3-0.7,3.7-2.4L14,47
				l1.4,44.2c0,2,1.7,3.7,3.7,3.7s3.7-1.7,3.7-3.7l1.5-26.4l1.5,26.4c0,2,1.6,3.7,3.7,3.7s3.7-1.7,3.7-3.7l2.1-53.7l8.4,2.3
				C45.1,40.1,46.7,39.9,48.1,39.1z"/>
			<path class="st0" d="M44.6,9.1h47.3v38.5H44.6v-3.2c-0.6,0-1.2-0.1-1.8-0.2l-0.2,0l-2-0.5v8H96V5.1H40.6v19.4l4,1.4
				C44.6,25.9,44.6,9.1,44.6,9.1z"/>
			<path class="st0" d="M45.8,69.2c0,4,3.2,7.3,7.3,7.3s7.3-3.2,7.3-7.3c0-4-3.2-7.3-7.3-7.3S45.8,65.2,45.8,69.2z"/>
			<path class="st0" d="M53.1,80.1c-6.8,0-12.9,2.3-14.4,9.8l0.1,5h28.5l0.1-5C66,82.3,59.9,80.1,53.1,80.1L53.1,80.1z"/>
			<path class="st0" d="M76.1,69.2c0,4,3.2,7.3,7.3,7.3c4,0,7.3-3.2,7.3-7.3c0-4-3.2-7.3-7.3-7.3C79.4,61.9,76.1,65.2,76.1,69.2z"/>
			<path class="st0" d="M83.4,80.1c-6.8,0-12.9,2.3-14.4,9.8l0.1,5h28.5l0.1-5C96.3,82.3,90.2,80.1,83.4,80.1L83.4,80.1z"/>
		</g>
		<path class="st0" d="M83.9,24.9c0,6.9-7.9,14.8-7.9,14.8S68,32,68,24.9c0-4.4,3.6-8,7.9-8S83.9,20.5,83.9,24.9z M75.9,22.2
			c-1.5,0-2.7,1.2-2.7,2.7s1.2,2.7,2.7,2.7c1.5,0,2.7-1.2,2.7-2.7S77.4,22.2,75.9,22.2z"/>
	</g>
</g>
</svg>
