<?xml version="1.0" encoding="utf-8"?>
<!-- Generator: Adobe Illustrator 26.5.0, SVG Export Plug-In . SVG Version: 6.00 Build 0)  -->
<svg version="1.1" id="_レイヤー_2" xmlns="http://www.w3.org/2000/svg" xmlns:xlink="http://www.w3.org/1999/xlink" x="0px"
	 y="0px" viewBox="0 0 100 100" style="enable-background:new 0 0 100 100;" xml:space="preserve">
<style type="text/css">
	.st0{fill:#7D1A21;}
</style>
<g id="_レイヤー_1-2">
	<g>
		<path class="st0" d="M86.6,38.9L53.4,23.7c-1.1-0.5-2.2-0.8-3.4-0.8s-2.3,0.2-3.4,0.8L13.4,38.9c-0.5,0.2-0.9,0.8-0.9,1.4
			c0,0.6,0.4,1.2,0.9,1.4L46.6,57c1.1,0.5,2.2,0.8,3.4,0.8s2.3-0.2,3.4-0.8l26.2-12v12.1c-1,0.1-1.8,1-1.8,2.1c0,0.9,0.6,1.7,1.5,2
			l-1.8,11.7h8.1l-1.8-11.7c0.9-0.3,1.5-1.1,1.5-2c0-1.1-0.8-2-1.8-2.1V43.2l3.1-1.4c0.6-0.2,0.9-0.8,0.9-1.4S87.1,39.2,86.6,38.9
			L86.6,38.9z"/>
		<path class="st0" d="M50,63.3c-1.7,0-3.2-0.3-4.7-1L29,54.8v14.9c0,3.3,9.9,7.4,21,7.4s21-4.1,21-7.4V54.8l-16.2,7.5
			C53.2,62.9,51.7,63.3,50,63.3z"/>
	</g>
</g>
</svg>
