<?xml version="1.0" encoding="UTF-8"?><svg id="_レイヤー_2" xmlns="http://www.w3.org/2000/svg" viewBox="0 0 58.65 81.1"><defs><style>.cls-1{fill:#fff;}.cls-2{fill:#7d1a21;}</style></defs><g id="_レイヤー_1-2"><g><path class="cls-2" d="M28.4,60.96c-1.86-.35-3.29-1.69-4.48-2.8-.63-.58-1.49-1.39-1.93-1.5-.06-.02-.16-.03-.35-.03-.58,0-1.41,.19-2.2,.37-1.05,.24-2.13,.49-3.24,.49-1.04,0-1.97-.23-2.75-.68-.25-.14-.48-.31-.69-.48l-8.01,17.29,9.95-.3,6.21,7.78,8.4-18.14,.93-2c-.3,.06-.61,.09-.93,.09-.32,0-.63-.03-.92-.09Z"/><path class="cls-2" d="M45.19,56.8c-.79,.46-1.71,.69-2.75,.69h0c-1.11,0-2.19-.25-3.23-.49-.8-.18-1.62-.37-2.21-.37-.18,0-.29,.02-.35,.03-.44,.12-1.3,.92-1.92,1.5-.3,.27-.6,.56-.93,.85l-3.15,6.8,7.08,15.29,6.21-7.78,9.95,.3-8.01-17.29c-.21,.18-.44,.33-.68,.48Z"/><path class="cls-2" d="M54.35,36.03c.61-2.28,4.3-4.23,4.3-6.71s-3.69-4.42-4.3-6.7c-.63-2.36,1.57-5.9,.38-7.96-1.21-2.1-5.39-1.94-7.09-3.65-1.7-1.7-1.55-5.87-3.65-7.09-2.06-1.19-5.6,1.01-7.96,.38-2.28-.61-4.23-4.3-6.71-4.3s-4.42,3.7-6.7,4.3c-2.36,.63-5.89-1.57-7.96-.38-2.09,1.21-1.94,5.39-3.64,7.09-1.7,1.7-5.88,1.55-7.09,3.65-1.2,2.06,1.01,5.6,.38,7.96-.61,2.28-4.31,4.23-4.31,6.7s3.7,4.42,4.31,6.71c.63,2.36-1.58,5.9-.38,7.96,1.21,2.1,5.39,1.94,7.09,3.64,.78,.78,1.17,2.09,1.57,3.38,.34,1.1,.68,2.2,1.27,2.98,.23,.3,.49,.55,.81,.73,2.06,1.19,5.6-1.01,7.96-.38,1.46,.39,2.78,2.03,4.19,3.18,.8,.64,1.62,1.13,2.51,1.13s1.72-.48,2.52-1.13c1.38-1.12,2.68-2.72,4.1-3.15,.03-.01,.06-.02,.09-.03,2.36-.63,5.9,1.57,7.96,.38,.32-.18,.58-.43,.81-.73,1.28-1.68,1.39-4.92,2.84-6.36,1.7-1.7,5.88-1.55,7.09-3.64,1.19-2.06-1.01-5.6-.38-7.96Z"/></g><path class="cls-1" d="M25.8,33.34c2.37,0,3.15-.06,3.32-.06,.31,0,.33,.03,.33,.31v1.89c0,.28-.03,.31-.33,.31-.17,0-.95-.06-3.32-.06h-1.23v2.67c1.7-.28,3.43-.59,5.13-.95-.08,.47-.17,1.06-.2,1.62q-.08,.89-.95,1.09c-2.93,.67-6.13,1.25-9.42,1.76-.53,.08-.89,.19-1.06,.31-.2,.14-.33,.2-.53,.2s-.31-.17-.39-.42c-.25-.84-.47-1.87-.64-2.65,.95-.03,1.81-.11,2.84-.22,.84-.08,1.73-.2,2.65-.33v-3.06h-1.23c-2.34,0-3.15,.06-3.31,.06-.28,0-.31-.03-.31-.31v-1.89c0-.28,.03-.31,.31-.31,.17,0,.97,.06,3.31,.06h1.23v-2.4h-1.03c-2.28,0-3.06,.06-3.26,.06-.28,0-.31-.03-.31-.31,0-.2,.06-.97,.06-2.87v-5.35c0-1.87-.06-2.7-.06-2.87,0-.28,.03-.31,.31-.31,.19,0,.97,.06,3.26,.06h4.57c2.28,0,3.06-.06,3.23-.06,.31,0,.33,.03,.33,.31,0,.17-.06,1-.06,2.87v5.35c0,1.89,.06,2.7,.06,2.87,0,.28-.03,.31-.33,.31-.17,0-.95-.06-3.23-.06h-.98v2.4h1.23Zm-3.79-9.28v-2.45h-2.03v2.45h2.03Zm0,4.76v-2.62h-2.03v2.62h2.03Zm2.56-7.21v2.45h2.03v-2.45h-2.03Zm2.03,4.6h-2.03v2.62h2.03v-2.62Zm5.91-2.98c.28-.22,.36-.2,.59-.03,.64,.53,1.25,1.09,1.87,1.64,.89-.86,1.64-1.84,2.37-2.93h-3.73c-2.23,0-2.93,.06-3.09,.06-.28,0-.31-.03-.31-.31v-1.98c0-.28,.03-.31,.31-.31,.17,0,.86,.06,3.09,.06h4.74c.39,0,.56-.06,.64-.11,.17-.08,.25-.11,.39-.11,.2,0,.45,.17,1.11,.86,.67,.7,.81,.95,.81,1.23,0,.17-.11,.33-.31,.45-.28,.2-.45,.36-.86,.89-1.06,1.48-2.17,2.79-3.37,3.98,.22,.25,.45,.53,.7,.78,.17,.2,.17,.33-.11,.53l-.31,.22h2.37c.25,0,.39-.03,.5-.08,.14-.06,.25-.14,.42-.14,.25,0,.42,.11,1.11,.78,.61,.67,.7,.92,.7,1.14,0,.11-.06,.22-.19,.39-.11,.14-.2,.33-.39,.78-.67,1.34-1.31,2.48-2.14,3.62-.25,.36-.36,.5-.53,.5-.11,0-.28-.11-.56-.31-.61-.45-1.2-.75-1.67-.92,1-1.17,1.62-2.03,2.26-3.29h-2.42v6.38c0,1.28,.03,2.48,.03,3.26,0,1.23-.19,1.95-.92,2.51-.67,.5-1.53,.64-3.65,.64-.89,0-.92,0-1.09-.86-.17-.84-.42-1.45-.75-1.95,.89,.08,1.53,.11,2.56,.11,.84,0,1.03-.17,1.03-1.03v-9.05h-.25c-2.4,0-3.18,.06-3.34,.06-.28,0-.31-.03-.31-.31v-1.95c0-.31,.03-.33,.31-.33,.17,0,.95,.06,3.34,.06h1.2c-1.14-1.34-2.4-2.54-3.54-3.45-.25-.2-.22-.28,.08-.47l1.34-1Z"/></g></svg>