<?xml version="1.0" encoding="utf-8"?>
<!-- Generator: Adobe Illustrator 26.5.0, SVG Export Plug-In . SVG Version: 6.00 Build 0)  -->
<svg version="1.1" id="_レイヤー_2" xmlns="http://www.w3.org/2000/svg" xmlns:xlink="http://www.w3.org/1999/xlink" x="0px"
	 y="0px" viewBox="0 0 58.7 81.1" style="enable-background:new 0 0 58.7 81.1;" xml:space="preserve">
<style type="text/css">
	.st0{fill:#7D1A21;}
	.st1{fill:#FFFFFF;}
</style>
<g>
	<path class="st0" d="M28.4,61c-1.9-0.3-3.3-1.7-4.5-2.8c-0.6-0.6-1.5-1.4-1.9-1.5c-0.1,0-0.2,0-0.4,0c-0.6,0-1.4,0.2-2.2,0.4
		c-1,0.2-2.1,0.5-3.2,0.5c-1,0-2-0.2-2.8-0.7c-0.2-0.1-0.5-0.3-0.7-0.5l-8,17.3l9.9-0.3l6.2,7.8L29.3,63l0.9-2
		C29.9,61,29.6,61,29.3,61S28.7,61,28.4,61L28.4,61z"/>
	<path class="st0" d="M45.2,56.8c-0.8,0.5-1.7,0.7-2.8,0.7l0,0c-1.1,0-2.2-0.2-3.2-0.5c-0.8-0.2-1.6-0.4-2.2-0.4c-0.2,0-0.3,0-0.3,0
		c-0.4,0.1-1.3,0.9-1.9,1.5c-0.3,0.3-0.6,0.6-0.9,0.8l-3.1,6.8l7.1,15.3l6.2-7.8l10,0.3l-8-17.3C45.7,56.5,45.4,56.7,45.2,56.8
		L45.2,56.8z"/>
	<path class="st0" d="M54.3,36c0.6-2.3,4.3-4.2,4.3-6.7s-3.7-4.4-4.3-6.7c-0.6-2.4,1.6-5.9,0.4-8c-1.2-2.1-5.4-1.9-7.1-3.7
		c-1.7-1.7-1.5-5.9-3.7-7.1c-2.1-1.2-5.6,1-8,0.4C33.8,3.7,31.8,0,29.3,0s-4.4,3.7-6.7,4.3c-2.4,0.6-5.9-1.6-8-0.4
		C12.6,5.1,12.7,9.3,11,11s-5.9,1.6-7.1,3.6c-1.2,2.1,1,5.6,0.4,8C3.7,24.9,0,26.8,0,29.3s3.7,4.4,4.3,6.7c0.6,2.4-1.6,5.9-0.4,8
		c1.2,2.1,5.4,1.9,7.1,3.6c0.8,0.8,1.2,2.1,1.6,3.4c0.3,1.1,0.7,2.2,1.3,3c0.2,0.3,0.5,0.5,0.8,0.7c2.1,1.2,5.6-1,8-0.4
		c1.5,0.4,2.8,2,4.2,3.2c0.8,0.6,1.6,1.1,2.5,1.1s1.7-0.5,2.5-1.1c1.4-1.1,2.7-2.7,4.1-3.2c0,0,0.1,0,0.1,0c2.4-0.6,5.9,1.6,8,0.4
		c0.3-0.2,0.6-0.4,0.8-0.7c1.3-1.7,1.4-4.9,2.8-6.4c1.7-1.7,5.9-1.5,7.1-3.6C55.9,41.9,53.7,38.4,54.3,36L54.3,36z"/>
</g>
<path class="st1" d="M40.7,25.7c0,9.5-11,20.5-11,20.5s-11-10.7-11-20.5c0-6.1,4.9-11,11-11S40.7,19.7,40.7,25.7z M29.7,21.9
	c-2.1,0-3.8,1.7-3.8,3.8s1.7,3.8,3.8,3.8s3.8-1.7,3.8-3.8S31.8,21.9,29.7,21.9z"/>
</svg>
