<?xml version="1.0" encoding="UTF-8"?><svg id="_レイヤー_2" xmlns="http://www.w3.org/2000/svg" viewBox="0 0 58.65 81.1"><defs><style>.cls-1{fill:#fff;}.cls-2{fill:#7d1a21;}</style></defs><g id="_レイヤー_1-2"><g><g><path class="cls-2" d="M28.4,60.96c-1.86-.35-3.29-1.69-4.48-2.8-.63-.58-1.49-1.39-1.93-1.5-.06-.02-.16-.03-.35-.03-.58,0-1.41,.19-2.2,.37-1.05,.24-2.13,.49-3.24,.49-1.04,0-1.97-.23-2.75-.68-.25-.14-.48-.31-.69-.48l-8.01,17.29,9.95-.3,6.21,7.78,8.4-18.14,.93-2c-.3,.06-.61,.09-.93,.09-.32,0-.63-.03-.92-.09Z"/><path class="cls-2" d="M45.19,56.8c-.79,.46-1.71,.69-2.75,.69h0c-1.11,0-2.19-.25-3.23-.49-.8-.18-1.62-.37-2.21-.37-.18,0-.29,.02-.35,.03-.44,.12-1.3,.92-1.92,1.5-.3,.27-.6,.56-.93,.85l-3.15,6.8,7.08,15.29,6.21-7.78,9.95,.3-8.01-17.29c-.21,.18-.44,.33-.68,.48Z"/><path class="cls-2" d="M54.35,36.03c.61-2.28,4.3-4.23,4.3-6.71s-3.69-4.42-4.3-6.7c-.63-2.36,1.57-5.9,.38-7.96-1.21-2.1-5.39-1.94-7.09-3.65-1.7-1.7-1.55-5.87-3.65-7.09-2.06-1.19-5.6,1.01-7.96,.38-2.28-.61-4.23-4.3-6.71-4.3s-4.42,3.7-6.7,4.3c-2.36,.63-5.89-1.57-7.96-.38-2.09,1.21-1.94,5.39-3.64,7.09-1.7,1.7-5.88,1.55-7.09,3.65-1.2,2.06,1.01,5.6,.38,7.96-.61,2.28-4.31,4.23-4.31,6.7s3.7,4.42,4.31,6.71c.63,2.36-1.58,5.9-.38,7.96,1.21,2.1,5.39,1.94,7.09,3.64,.78,.78,1.17,2.09,1.57,3.38,.34,1.1,.68,2.2,1.27,2.98,.23,.3,.49,.55,.81,.73,2.06,1.19,5.6-1.01,7.96-.38,1.46,.39,2.78,2.03,4.19,3.18,.8,.64,1.62,1.13,2.51,1.13s1.72-.48,2.52-1.13c1.38-1.12,2.68-2.72,4.1-3.15,.03-.01,.06-.02,.09-.03,2.36-.63,5.9,1.57,7.96,.38,.32-.18,.58-.43,.81-.73,1.28-1.68,1.39-4.92,2.84-6.36,1.7-1.7,5.88-1.55,7.09-3.64,1.19-2.06-1.01-5.6-.38-7.96Z"/></g><g><path class="cls-1" d="M46.86,34.27c-.35,.11-.78,.26-1.23,.33-.19,.03-.39,.05-.58,.05,0-.02,.01-.04,.02-.06,.13-.43,.24-.88,.31-1.25,.08-.37,.13-.65,.15-.75,.06-.3,.1-.52,.17-.67,.07-.15,.17-.24,.33-.29,.66-.16,1.27-.59,1.69-1.24,.43-.65,.66-1.51,.6-2.43-.04-.58-.17-.83-.34-.88-.17-.05-.39,.1-.66,.32-.27,.22-.59,.5-.97,.73-.16,.1-.33,.18-.5,.25-.04-.4-.09-.8-.15-1.13-.06-.35-.11-.62-.13-.72-.1-.57-.14-.82,.12-1.02,.53-.37,.93-.95,1.08-1.67,.16-.72,.08-1.56-.28-2.35-.23-.5-.43-.68-.59-.67-.17,.01-.31,.22-.48,.5-.17,.28-.36,.64-.62,.96-.11,.14-.23,.27-.36,.39-.15-.3-.3-.59-.43-.83-.16-.3-.3-.52-.34-.6-.27-.48-.39-.69-.22-.95,.36-.5,.53-1.14,.45-1.83-.08-.69-.4-1.42-.97-2.01-.36-.38-.59-.48-.73-.41-.15,.06-.21,.29-.28,.6-.07,.31-.13,.69-.27,1.05-.06,.16-.12,.31-.2,.45-.16-.16-.32-.32-.46-.45-.25-.23-.44-.4-.51-.47-.41-.37-.58-.54-.5-.84,.19-.58,.15-1.25-.13-1.88-.28-.63-.82-1.23-1.54-1.62-.45-.25-.7-.28-.82-.17-.12,.1-.11,.34-.08,.66,.03,.3,.08,.66,.07,1.03-.25-.29-.58-.51-.96-.68-.44-.21-1.1-.34-1.67-.3-.57,.04-1.04,.26-1.15,.65-.11,.4,.16,.81,.52,1.18,.37,.36,.83,.69,1.2,.86,.33,.15,.66,.27,1.01,.29-.02,.01-.03,.02-.05,.04-.3,.23-.61,.42-.85,.6-.23,.18-.4,.33-.42,.48-.03,.15,.08,.29,.4,.46,.5,.27,1.04,.38,1.61,.35,.56-.03,1.15-.19,1.67-.5,.27-.14,.46-.02,.83,.33,.06,.06,.23,.23,.44,.46,.12,.13,.25,.28,.39,.44-.14,.07-.29,.13-.44,.18-.36,.13-.71,.21-.99,.31-.28,.1-.48,.19-.55,.33-.07,.14,0,.31,.24,.56,.39,.41,.87,.68,1.42,.83,.54,.15,1.15,.17,1.74,.03,.3-.06,.44,.12,.69,.56,.04,.08,.15,.29,.28,.57,.11,.23,.23,.51,.34,.8-.18,.02-.36,.03-.54,.03-.4,0-.78-.02-1.09-.02-.31,0-.54,.03-.66,.15-.12,.11-.11,.3,.04,.63,.24,.53,.63,.96,1.12,1.29,.49,.33,1.08,.56,1.71,.63,.32,.05,.39,.28,.48,.8,.01,.09,.05,.34,.08,.66,.03,.31,.05,.68,.05,1.04-.18-.04-.36-.1-.53-.16-.4-.14-.76-.31-1.07-.42-.3-.11-.55-.16-.71-.1-.16,.07-.22,.25-.19,.63,.04,.61,.27,1.17,.63,1.68,.36,.5,.85,.95,1.45,1.26,.15,.08,.22,.19,.24,.34,.02,.15,0,.35-.06,.63-.02,.09-.08,.35-.18,.68-.09,.33-.23,.73-.37,1.11,0,.02-.01,.04-.02,.06-.16-.11-.31-.24-.45-.36-.33-.29-.62-.6-.88-.82-.26-.22-.47-.37-.65-.37-.18,0-.31,.15-.44,.53-.19,.6-.19,1.23-.05,1.86,.15,.63,.45,1.26,.9,1.8,.22,.28,.11,.52-.22,1.01-.06,.08-.22,.31-.45,.59-.23,.28-.52,.61-.82,.92-.05,.05-.1,.1-.14,.15-.1-.17-.19-.35-.28-.53-.19-.42-.35-.84-.5-1.16-.15-.32-.3-.56-.47-.63-.17-.07-.37,.01-.64,.33-.44,.49-.7,1.09-.82,1.75-.12,.66-.11,1.4,.1,2.11,.09,.36-.12,.55-.65,.87-.09,.05-.34,.2-.68,.36-.34,.17-.76,.35-1.18,.51-.42,.16-.99,.41-1.3,.51-3.97,1.39-8.74,2-11.7,4.17-.46,.34,.45,1.64,.86,1.54,.4-.1,3.31-1.84,10.58-3.83,.31-.11,1.78-.59,2.23-.81,.45-.22,.91-.46,1.27-.67,.36-.21,.63-.39,.73-.45,.29-.18,.5-.31,.68-.37,.18-.06,.32-.05,.49,.05,.32,.21,.68,.35,1.07,.42,.39,.07,.81,.07,1.24,0,.43-.08,.86-.24,1.28-.48,.42-.24,.81-.56,1.16-.95,.44-.49,.54-.79,.45-.96-.09-.17-.39-.22-.77-.27-.38-.04-.86-.08-1.33-.19-.2-.05-.39-.11-.58-.2,.05-.06,.1-.12,.15-.18,.3-.37,.59-.76,.82-1.08,.23-.32,.39-.58,.45-.67,.36-.54,.52-.77,.88-.73,.71,.11,1.47-.06,2.15-.53,.34-.23,.65-.54,.92-.9,.27-.36,.49-.79,.64-1.26,.19-.59,.16-.89,.02-1-.15-.11-.42-.05-.77,.06Z"/><path class="cls-1" d="M24.92,45.44c.91-.35,1.88-.65,2.86-.93-1.05-.29-2.09-.59-3.08-.93-.3-.11-.88-.35-1.3-.51-.42-.16-.84-.35-1.18-.51-.34-.17-.59-.31-.68-.36-.53-.32-.74-.5-.65-.87,.2-.71,.22-1.45,.1-2.11-.12-.67-.39-1.26-.82-1.75-.27-.31-.47-.4-.64-.33-.17,.07-.32,.31-.47,.63-.15,.32-.31,.74-.5,1.16-.08,.18-.17,.36-.28,.53-.05-.05-.1-.1-.14-.15-.3-.31-.59-.64-.82-.92-.23-.28-.39-.5-.45-.59-.33-.49-.44-.73-.22-1.01,.46-.54,.76-1.17,.9-1.8,.15-.63,.15-1.25-.05-1.86-.12-.38-.25-.53-.43-.53-.18,0-.4,.14-.65,.37-.26,.22-.55,.53-.88,.82-.14,.12-.29,.25-.45,.36,0-.02-.01-.04-.02-.06-.15-.38-.28-.78-.37-1.11-.1-.33-.16-.59-.18-.68-.06-.27-.08-.47-.06-.63,.02-.15,.09-.26,.24-.34,.6-.31,1.09-.76,1.45-1.26,.36-.5,.58-1.07,.63-1.68,.03-.38-.04-.57-.19-.63-.16-.07-.4-.01-.71,.1-.31,.11-.67,.28-1.07,.42-.17,.06-.35,.12-.53,.16,0-.37,.03-.74,.05-1.04,.03-.33,.06-.57,.08-.66,.09-.52,.17-.75,.48-.8,.63-.07,1.23-.3,1.71-.63,.49-.33,.88-.76,1.12-1.29,.15-.34,.16-.52,.04-.63-.12-.11-.35-.14-.66-.15-.31,0-.69,.03-1.09,.02-.18,0-.36-.01-.54-.03,.11-.29,.23-.57,.34-.8,.13-.28,.24-.49,.28-.57,.25-.44,.39-.62,.69-.56,.59,.14,1.2,.11,1.74-.03,.55-.15,1.03-.42,1.42-.83,.25-.26,.31-.43,.24-.56-.07-.14-.28-.24-.55-.33-.28-.1-.63-.18-.99-.31-.15-.05-.29-.11-.44-.18,.14-.16,.27-.31,.39-.44,.21-.23,.38-.4,.44-.46,.37-.34,.56-.47,.83-.33,.52,.31,1.1,.47,1.67,.5,.57,.03,1.11-.08,1.61-.35,.31-.17,.42-.31,.4-.46-.03-.15-.19-.31-.42-.48-.23-.18-.54-.37-.84-.6-.02-.01-.03-.02-.05-.04,.35-.02,.68-.14,1.01-.29,.37-.17,.84-.5,1.2-.86,.36-.37,.63-.78,.52-1.18-.11-.4-.58-.61-1.15-.65-.57-.04-1.23,.09-1.67,.3-.38,.17-.71,.4-.96,.68,0-.37,.04-.73,.07-1.03,.03-.31,.04-.55-.08-.66-.12-.1-.37-.08-.82,.17-.72,.4-1.26,.99-1.54,1.62-.29,.63-.32,1.3-.13,1.88,.08,.3-.09,.46-.5,.84-.07,.06-.26,.23-.51,.47-.14,.13-.3,.29-.46,.45-.08-.15-.15-.3-.2-.45-.13-.37-.2-.75-.27-1.05-.07-.31-.13-.53-.28-.6-.14-.06-.37,.04-.73,.41-.57,.6-.89,1.33-.97,2.01-.08,.69,.09,1.34,.45,1.83,.17,.26,.05,.47-.22,.95-.05,.08-.18,.3-.34,.6-.13,.24-.29,.53-.43,.83-.13-.12-.25-.25-.36-.39-.26-.32-.45-.68-.62-.96-.17-.28-.31-.49-.48-.5-.17-.01-.36,.17-.59,.67-.37,.8-.44,1.64-.28,2.35,.16,.72,.55,1.3,1.08,1.67,.26,.2,.22,.45,.12,1.02-.02,.1-.07,.37-.13,.72-.05,.33-.11,.73-.15,1.13-.18-.07-.34-.15-.5-.25-.37-.22-.69-.51-.96-.73-.27-.22-.49-.37-.66-.32-.17,.05-.3,.3-.34,.88-.07,.92,.17,1.79,.6,2.43,.42,.65,1.03,1.08,1.69,1.24,.16,.05,.26,.14,.33,.29,.07,.15,.11,.37,.17,.67,.02,.1,.07,.39,.15,.75,.08,.37,.19,.82,.31,1.25,0,.02,.01,.04,.02,.06-.2,0-.39-.02-.58-.05-.45-.07-.88-.22-1.23-.33-.35-.11-.62-.17-.77-.06-.15,.11-.17,.41,.02,1,.15,.47,.37,.89,.64,1.26,.27,.37,.58,.67,.92,.9,.68,.47,1.44,.64,2.15,.53,.36-.04,.52,.2,.88,.73,.06,.09,.23,.35,.45,.67,.23,.32,.52,.71,.82,1.08,.05,.06,.1,.12,.15,.18-.19,.08-.38,.15-.58,.2-.47,.12-.94,.15-1.33,.19-.38,.04-.68,.09-.77,.27-.09,.17,.01,.47,.45,.96,.35,.39,.74,.71,1.16,.95,.42,.24,.85,.4,1.28,.48,.43,.08,.85,.08,1.24,0,.39-.07,.75-.22,1.07-.42,.17-.1,.31-.11,.49-.05,.18,.06,.39,.19,.68,.37,.1,.06,.37,.23,.73,.45,.36,.21,.81,.46,1.27,.67,.44,.21,1.84,.67,2.2,.8Z"/><path class="cls-1" d="M33.68,46.29c-1.14,.32-2.17,.62-3.1,.92,3.23,1.16,4.68,2,4.95,2.07,.4,.1,1.32-1.2,.86-1.54-.79-.58-1.71-1.05-2.71-1.45Z"/></g></g></g></svg>