<?xml version="1.0" encoding="UTF-8"?><svg id="_レイヤー_2" xmlns="http://www.w3.org/2000/svg" viewBox="0 0 58.65 81.1"><defs><style>.cls-1{fill:#fff;}.cls-2{fill:#7d1a21;}</style></defs><g id="_レイヤー_1-2"><g><g><path class="cls-2" d="M28.4,60.96c-1.86-.35-3.29-1.69-4.48-2.8-.63-.58-1.49-1.39-1.93-1.5-.06-.02-.16-.03-.35-.03-.58,0-1.41,.19-2.2,.37-1.05,.24-2.13,.49-3.24,.49-1.04,0-1.97-.23-2.75-.68-.25-.14-.48-.31-.69-.48l-8.01,17.29,9.95-.3,6.21,7.78,8.4-18.14,.93-2c-.3,.06-.61,.09-.93,.09-.32,0-.63-.03-.92-.09Z"/><path class="cls-2" d="M45.19,56.8c-.79,.46-1.71,.69-2.75,.69h0c-1.11,0-2.19-.25-3.23-.49-.8-.18-1.62-.37-2.21-.37-.18,0-.29,.02-.35,.03-.44,.12-1.3,.92-1.92,1.5-.3,.27-.6,.56-.93,.85l-3.15,6.8,7.08,15.29,6.21-7.78,9.95,.3-8.01-17.29c-.21,.18-.44,.33-.68,.48Z"/><path class="cls-2" d="M54.35,36.03c.61-2.28,4.3-4.23,4.3-6.71s-3.69-4.42-4.3-6.7c-.63-2.36,1.57-5.9,.38-7.96-1.21-2.1-5.39-1.94-7.09-3.65-1.7-1.7-1.55-5.87-3.65-7.09-2.06-1.19-5.6,1.01-7.96,.38-2.28-.61-4.23-4.3-6.71-4.3s-4.42,3.7-6.7,4.3c-2.36,.63-5.89-1.57-7.96-.38-2.09,1.21-1.94,5.39-3.64,7.09-1.7,1.7-5.88,1.55-7.09,3.65-1.2,2.06,1.01,5.6,.38,7.96-.61,2.28-4.31,4.23-4.31,6.7s3.7,4.42,4.31,6.71c.63,2.36-1.58,5.9-.38,7.96,1.21,2.1,5.39,1.94,7.09,3.64,.78,.78,1.17,2.09,1.57,3.38,.34,1.1,.68,2.2,1.27,2.98,.23,.3,.49,.55,.81,.73,2.06,1.19,5.6-1.01,7.96-.38,1.46,.39,2.78,2.03,4.19,3.18,.8,.64,1.62,1.13,2.51,1.13s1.72-.48,2.52-1.13c1.38-1.12,2.68-2.72,4.1-3.15,.03-.01,.06-.02,.09-.03,2.36-.63,5.9,1.57,7.96,.38,.32-.18,.58-.43,.81-.73,1.28-1.68,1.39-4.92,2.84-6.36,1.7-1.7,5.88-1.55,7.09-3.64,1.19-2.06-1.01-5.6-.38-7.96Z"/></g><g><path class="cls-1" d="M45.96,24.73l-15.85-7.3c-.51-.24-1.06-.36-1.63-.36s-1.11,.12-1.63,.36l-15.85,7.3c-.26,.12-.43,.39-.43,.67s.17,.55,.43,.67l15.85,7.3c.51,.24,1.06,.36,1.63,.36s1.11-.12,1.63-.36l12.51-5.76v5.8c-.5,.06-.88,.48-.88,.99,0,.44,.29,.83,.71,.95l-.85,5.58h3.9l-.85-5.58c.42-.12,.71-.51,.71-.95,0-.51-.39-.93-.88-.99v-6.66l1.48-.68c.26-.12,.43-.39,.43-.67s-.17-.55-.43-.67Z"/><path class="cls-1" d="M28.48,36.37c-.79,0-1.55-.17-2.27-.5l-7.75-3.57v7.11c0,1.56,4.72,3.54,10.02,3.54s10.02-1.98,10.02-3.54v-7.11l-7.76,3.57c-.72,.33-1.48,.5-2.27,.5Z"/></g></g></g></svg>