<?xml version="1.0" encoding="UTF-8"?><svg id="_レイヤー_2" xmlns="http://www.w3.org/2000/svg" viewBox="0 0 70 96.8"><defs><style>.cls-1,.cls-2{fill:#fff;}.cls-3{fill:#7d1a21;}.cls-2{stroke:#fff;stroke-miterlimit:10;stroke-width:.5px;}</style></defs><g id="_レイヤー_1-2"><g><g><path class="cls-3" d="M33.9,72.76c-2.21-.41-3.93-2.01-5.34-3.34-.75-.7-1.77-1.65-2.3-1.79-.07-.02-.2-.04-.42-.04-.7,0-1.68,.23-2.63,.44-1.25,.29-2.54,.58-3.86,.58-1.25,0-2.35-.27-3.28-.81-.3-.17-.57-.36-.82-.57l-9.55,20.63,11.88-.36,7.41,9.29,10.02-21.66,1.11-2.38c-.36,.07-.72,.11-1.11,.11-.38,0-.75-.04-1.1-.11Z"/><path class="cls-3" d="M53.94,67.79c-.94,.54-2.04,.82-3.28,.82h0c-1.32,0-2.61-.3-3.86-.58-.95-.22-1.93-.44-2.63-.44-.22,0-.35,.02-.42,.04-.53,.14-1.55,1.1-2.3,1.79-.35,.33-.72,.67-1.11,1.01l-3.76,8.12,8.45,18.25,7.41-9.29,11.88,.36-9.56-20.64c-.25,.21-.52,.4-.81,.57Z"/><path class="cls-3" d="M64.86,43c.73-2.72,5.14-5.05,5.14-8s-4.41-5.28-5.14-8c-.75-2.82,1.88-7.04,.45-9.5-1.45-2.5-6.43-2.32-8.46-4.35-2.03-2.03-1.85-7.01-4.35-8.46-2.46-1.42-6.68,1.21-9.5,.46-2.72-.73-5.05-5.14-8-5.14s-5.28,4.41-8,5.14c-2.81,.75-7.03-1.88-9.5-.46-2.5,1.45-2.32,6.43-4.35,8.46-2.03,2.03-7.02,1.85-8.46,4.35-1.43,2.46,1.21,6.68,.46,9.5-.73,2.72-5.14,5.05-5.14,8s4.41,5.28,5.14,8c.75,2.82-1.88,7.04-.46,9.5,1.45,2.5,6.43,2.32,8.46,4.35,.93,.93,1.4,2.49,1.87,4.04,.4,1.32,.81,2.63,1.51,3.55,.27,.36,.59,.66,.96,.87,2.46,1.43,6.69-1.21,9.5-.45,1.74,.46,3.32,2.43,5,3.79,.95,.77,1.94,1.35,3,1.35s2.05-.58,3-1.35c1.65-1.33,3.2-3.25,4.9-3.76,.03-.01,.07-.02,.1-.03,2.82-.75,7.04,1.88,9.5,.45,.38-.22,.7-.52,.97-.88,1.53-2.01,1.66-5.87,3.38-7.59,2.03-2.03,7.01-1.85,8.46-4.35,1.43-2.46-1.21-6.69-.45-9.5Z"/></g><path class="cls-2" d="M17.46,24.44h7.41c1.5,0,2.81,.17,3.95,.51,1.13,.34,2.11,.8,2.94,1.37,.83,.57,1.52,1.23,2.07,1.96,.55,.74,.98,1.5,1.3,2.28,.32,.78,.55,1.56,.69,2.34,.14,.78,.21,1.5,.21,2.16,0,1.36-.25,2.67-.75,3.95-.5,1.27-1.24,2.4-2.22,3.39-.98,.99-2.19,1.79-3.64,2.38-1.45,.6-3.12,.9-5.03,.9h-6.93V24.44Zm2.88,18.54h3.63c1.22,0,2.38-.17,3.46-.5s2.04-.82,2.87-1.48,1.47-1.49,1.95-2.48c.48-.99,.72-2.14,.72-3.46,0-.68-.11-1.47-.33-2.38s-.63-1.77-1.25-2.59-1.45-1.52-2.53-2.08c-1.08-.57-2.48-.86-4.2-.86h-4.32v15.84Z"/><path class="cls-1" d="M45.27,42.99c.41,.27,.67,.47,1.01,.76,.2,.18,.2,.29,.2,.4,0,.09-.11,.18-.31,.22-.22,.04-.4,.09-.76,.22-1.03,.45-2.39,.79-4,1.02-.16,.02-.31,.04-.38,.04-.22,0-.27-.11-.45-.47-.18-.38-.45-.77-.72-1.03,1.67-.14,3.19-.36,4.25-.72,.23-.07,.65-.25,.94-.43h-.23c-1.73,0-2.36,.03-2.47,.03-.18,0-.2-.02-.2-.2,0-.11,.04-.58,.04-1.64v-2.54c0-1.06-.03-1.53-.03-1.64,0-.18,.02-.2,.2-.2,.11,0,.74,.04,2.38,.04h6.14c1.75,0,2.38-.03,2.48-.03,.2,0,.22,.02,.22,.2,0,.11-.04,.58-.04,1.64v2.54c0,1.06,.03,1.53,.03,1.64,0,.18-.02,.2-.22,.2-.11,0-.74-.04-2.48-.04h-5.6Zm-1.54-13.69c.23-.04,.29-.04,.4,.09,.4,.5,.84,1.17,1.15,1.78h1.57s0-.49,0-.49c0-.83-.02-1.26-.12-1.73,.67,.02,1.24,.07,1.87,.15,.16,.02,.27,.11,.27,.2,0,.14-.04,.23-.11,.36-.07,.18-.09,.49-.09,1.17v.34h1.71c.18-.29,.29-.58,.45-.92,.11-.25,.2-.52,.29-.95,.59,.09,1.19,.23,1.71,.4,.14,.05,.23,.14,.23,.23,0,.14-.07,.22-.18,.31-.14,.11-.23,.25-.33,.4-.11,.2-.22,.38-.32,.54h.63c1.67,0,2.27-.03,2.39-.03,.18,0,.2,.02,.2,.2,0,.11-.04,.41-.04,.85v.7c0,1.51,.03,1.76,.03,1.85,0,.2-.02,.22-.2,.22h-1.4c-.18,0-.2-.02-.2-.22v-2.2s-11.56,0-11.56,0v2.2c0,.18-.02,.2-.2,.2h-1.39c-.2,0-.22-.02-.22-.2,0-.11,.04-.36,.04-1.85v-.56c0-.58-.03-.86-.03-.99,0-.18,.02-.2,.22-.2,.11,0,.72,.04,2.38,.04h.49c-.25-.45-.58-.97-.88-1.37-.13-.16-.11-.25,.13-.29l1.12-.22Zm6.03,3.93c1.6,0,2.16-.03,2.27-.03,.2,0,.22,.02,.22,.2,0,.11-.04,.31-.04,.94v.76c0,.63,.04,.83,.04,.94,0,.2-.02,.22-.22,.22-.11,0-.67-.04-2.27-.04h-3.76c-1.58,0-2.14,.03-2.27,.03-.18,0-.2-.02-.2-.22,0-.11,.04-.31,.04-.94v-.76c0-.63-.04-.81-.04-.94,0-.18,.02-.2,.2-.2,.13,0,.68,.04,2.27,.04h3.76Zm1.94,7.96h-7.67s0,.66,0,.66h7.67s0-.66,0-.66Zm0-.95v-.65h-7.67s0,.64,0,.64h7.67Zm-7.67-1.6h7.67s0-.64,0-.64h-7.67s0,.64,0,.64Zm1.16-3.53h5.38s0-.77,0-.77h-5.38s0,.77,0,.77Zm4.98,8.05c.18-.18,.23-.18,.38-.11,1.46,.63,3.22,.98,5.26,1.14-.23,.23-.49,.65-.69,1.03-.18,.36-.25,.45-.45,.45-.09,0-.18,0-.4-.04-1.84-.25-3.53-.69-4.84-1.44-.16-.09-.14-.16,.04-.34l.7-.68Z"/></g></g></svg>