<?xml version="1.0" encoding="UTF-8"?><svg id="_レイヤー_2" xmlns="http://www.w3.org/2000/svg" viewBox="0 0 39.6 54.75"><defs><style>.cls-1{fill:#fff;}.cls-2{fill:#7d1a21;}</style></defs><g id="_レイヤー_1-2"><g><g><path class="cls-2" d="M19.17,41.16c-1.25-.23-2.22-1.14-3.02-1.89-.42-.39-1-.94-1.3-1.01-.04-.01-.11-.02-.24-.02-.39,0-.95,.13-1.49,.25-.71,.16-1.44,.33-2.19,.33-.7,0-1.33-.16-1.86-.46-.17-.1-.32-.21-.46-.32l-5.4,11.67,6.72-.2,4.19,5.25,5.67-12.25,.63-1.35c-.2,.04-.41,.06-.63,.06-.21,0-.42-.02-.62-.06Z"/><path class="cls-2" d="M30.51,38.35c-.53,.31-1.16,.46-1.86,.46h0c-.75,0-1.48-.17-2.18-.33-.54-.12-1.09-.25-1.49-.25-.12,0-.2,.01-.24,.02-.3,.08-.88,.62-1.3,1.01-.2,.19-.41,.38-.63,.57l-2.13,4.59,4.78,10.32,4.19-5.25,6.72,.2-5.41-11.67c-.14,.12-.29,.22-.46,.32Z"/><path class="cls-2" d="M36.69,24.33c.41-1.54,2.91-2.86,2.91-4.53s-2.49-2.99-2.91-4.53c-.43-1.59,1.06-3.98,.26-5.37-.82-1.41-3.64-1.31-4.79-2.46-1.15-1.15-1.05-3.97-2.46-4.79-1.39-.81-3.78,.68-5.37,.26-1.54-.41-2.86-2.91-4.53-2.91s-2.99,2.5-4.53,2.91c-1.59,.43-3.98-1.06-5.37-.26-1.41,.82-1.31,3.64-2.46,4.79-1.15,1.15-3.97,1.05-4.79,2.46-.81,1.39,.68,3.78,.26,5.37-.41,1.54-2.91,2.86-2.91,4.53s2.5,2.99,2.91,4.53c.43,1.59-1.07,3.98-.26,5.37,.82,1.41,3.64,1.31,4.79,2.46,.53,.53,.79,1.41,1.06,2.28,.23,.75,.46,1.49,.86,2.01,.15,.2,.33,.37,.54,.49,1.39,.81,3.78-.68,5.37-.26,.98,.26,1.88,1.37,2.83,2.14,.54,.43,1.1,.76,1.7,.76s1.16-.33,1.7-.76c.93-.76,1.81-1.84,2.77-2.13,.02,0,.04-.01,.06-.02,1.59-.43,3.98,1.06,5.37,.26,.21-.12,.39-.29,.55-.5,.87-1.14,.94-3.32,1.91-4.29,1.15-1.15,3.97-1.05,4.79-2.46,.81-1.39-.68-3.78-.26-5.37Z"/></g><polygon class="cls-1" points="19.8 12.26 22.25 17.22 27.73 18.02 23.76 21.88 24.7 27.34 19.8 24.76 14.9 27.34 15.83 21.88 11.87 18.02 17.35 17.22 19.8 12.26"/></g></g></svg>