<?xml version="1.0" encoding="utf-8"?>
<!-- Generator: Adobe Illustrator 26.5.0, SVG Export Plug-In . SVG Version: 6.00 Build 0)  -->
<svg version="1.1" id="_レイヤー_2" xmlns="http://www.w3.org/2000/svg" xmlns:xlink="http://www.w3.org/1999/xlink" x="0px"
	 y="0px" viewBox="0 0 38 52.5" style="enable-background:new 0 0 38 52.5;" xml:space="preserve">
<style type="text/css">
	.st0{fill:#7D1A21;}
	.st1{fill:#FFFFFF;}
</style>
<g>
	<path class="st0" d="M18.4,39.5c-1.2-0.2-2.1-1.1-2.9-1.8c-0.4-0.4-1-0.9-1.2-1c0,0-0.1,0-0.2,0c-0.4,0-0.9,0.1-1.4,0.2
		c-0.7,0.2-1.4,0.3-2.1,0.3c-0.7,0-1.3-0.2-1.8-0.4c-0.2-0.1-0.3-0.2-0.4-0.3L3.1,47.7l6.5-0.2l4,5L19,40.8l0.6-1.3
		c-0.2,0-0.4,0.1-0.6,0.1C18.8,39.6,18.6,39.6,18.4,39.5L18.4,39.5z"/>
	<path class="st0" d="M29.3,36.8c-0.5,0.3-1.1,0.4-1.8,0.4l0,0c-0.7,0-1.4-0.2-2.1-0.3c-0.5-0.1-1-0.2-1.4-0.2c-0.1,0-0.2,0-0.2,0
		c-0.3,0.1-0.8,0.6-1.2,1c-0.2,0.2-0.4,0.4-0.6,0.5l-2,4.4l4.6,9.9l4-5l6.4,0.2l-5.2-11.2C29.6,36.6,29.4,36.7,29.3,36.8L29.3,36.8z
		"/>
	<path class="st0" d="M35.2,23.3c0.4-1.5,2.8-2.7,2.8-4.3s-2.4-2.9-2.8-4.3c-0.4-1.5,1-3.8,0.2-5.2c-0.8-1.4-3.5-1.3-4.6-2.4
		s-1-3.8-2.4-4.6c-1.3-0.8-3.6,0.7-5.2,0.2C21.9,2.4,20.6,0,19,0s-2.9,2.4-4.3,2.8c-1.5,0.4-3.8-1-5.2-0.2C8.1,3.3,8.2,6,7.1,7.1
		s-3.8,1-4.6,2.4c-0.8,1.3,0.7,3.6,0.2,5.2C2.4,16.1,0,17.4,0,19s2.4,2.9,2.8,4.3c0.4,1.5-1,3.8-0.2,5.2c0.8,1.4,3.5,1.3,4.6,2.4
		c0.5,0.5,0.8,1.3,1,2.2C8.4,33.8,8.6,34.5,9,35c0.1,0.2,0.3,0.4,0.5,0.5c1.3,0.8,3.6-0.7,5.2-0.2c0.9,0.2,1.8,1.3,2.7,2.1
		c0.5,0.4,1,0.7,1.6,0.7s1.1-0.3,1.6-0.7c0.9-0.7,1.7-1.8,2.7-2c0,0,0,0,0.1,0c1.5-0.4,3.8,1,5.2,0.2c0.2-0.1,0.4-0.3,0.5-0.5
		c0.8-1.1,0.9-3.2,1.8-4.1c1.1-1.1,3.8-1,4.6-2.4C36.3,27.2,34.8,24.9,35.2,23.3L35.2,23.3z"/>
</g>
<g>
	<path class="st1" d="M25.4,12.9c-2.1,0-4.4,0.9-5.6,2.4v13c1.3-1.5,3.5-2.4,5.6-2.4h3.9v-13C29.3,12.9,25.4,12.9,25.4,12.9z"/>
	<path class="st1" d="M13.1,12.9H9.2v13h3.9c2.1,0,4.4,0.9,5.6,2.4v-13C17.5,13.8,15.2,12.9,13.1,12.9z"/>
</g>
</svg>
