<?xml version="1.0" encoding="UTF-8"?><svg id="_レイヤー_2" xmlns="http://www.w3.org/2000/svg" viewBox="0 0 58.65 81.1"><defs><style>.cls-1{fill:#fff;}.cls-2{fill:#7d1a21;}</style></defs><g id="_レイヤー_1-2"><g><g><path class="cls-2" d="M28.4,60.96c-1.86-.35-3.29-1.69-4.48-2.8-.63-.58-1.49-1.39-1.93-1.5-.06-.02-.16-.03-.35-.03-.58,0-1.41,.19-2.2,.37-1.05,.24-2.13,.49-3.24,.49-1.04,0-1.97-.23-2.75-.68-.25-.14-.48-.31-.69-.48l-8.01,17.29,9.95-.3,6.21,7.78,8.4-18.14,.93-2c-.3,.06-.61,.09-.93,.09-.32,0-.63-.03-.92-.09Z"/><path class="cls-2" d="M45.19,56.8c-.79,.46-1.71,.69-2.75,.69h0c-1.11,0-2.19-.25-3.23-.49-.8-.18-1.62-.37-2.21-.37-.18,0-.29,.02-.35,.03-.44,.12-1.3,.92-1.92,1.5-.3,.27-.6,.56-.93,.85l-3.15,6.8,7.08,15.29,6.21-7.78,9.95,.3-8.01-17.29c-.21,.18-.44,.33-.68,.48Z"/><path class="cls-2" d="M54.35,36.03c.61-2.28,4.3-4.23,4.3-6.71s-3.69-4.42-4.3-6.7c-.63-2.36,1.57-5.9,.38-7.96-1.21-2.1-5.39-1.94-7.09-3.65-1.7-1.7-1.55-5.87-3.65-7.09-2.06-1.19-5.6,1.01-7.96,.38-2.28-.61-4.23-4.3-6.71-4.3s-4.42,3.7-6.7,4.3c-2.36,.63-5.89-1.57-7.96-.38-2.09,1.21-1.94,5.39-3.64,7.09-1.7,1.7-5.88,1.55-7.09,3.65-1.2,2.06,1.01,5.6,.38,7.96-.61,2.28-4.31,4.23-4.31,6.7s3.7,4.42,4.31,6.71c.63,2.36-1.58,5.9-.38,7.96,1.21,2.1,5.39,1.94,7.09,3.64,.78,.78,1.17,2.09,1.57,3.38,.34,1.1,.68,2.2,1.27,2.98,.23,.3,.49,.55,.81,.73,2.06,1.19,5.6-1.01,7.96-.38,1.46,.39,2.78,2.03,4.19,3.18,.8,.64,1.62,1.13,2.51,1.13s1.72-.48,2.52-1.13c1.38-1.12,2.68-2.72,4.1-3.15,.03-.01,.06-.02,.09-.03,2.36-.63,5.9,1.57,7.96,.38,.32-.18,.58-.43,.81-.73,1.28-1.68,1.39-4.92,2.84-6.36,1.7-1.7,5.88-1.55,7.09-3.64,1.19-2.06-1.01-5.6-.38-7.96Z"/></g><g><path class="cls-1" d="M37.43,15.01H21.23v2.69h16.2v-2.69Z"/><path class="cls-1" d="M37.43,19.09H15.35v6.21c0,.92,.25,1.78,.69,2.49,.65,1.06,1.65,1.78,2.71,2.23,1.06,.46,2.21,.67,3.31,.67v-.13c1.68,3.54,5.34,3.83,5.34,6.83,0,3.88,.57,4.6-3.42,6.31v2.51h10.72v-2.51c-3.99-1.71-3.42-2.43-3.42-6.31,0-3,3.66-3.28,5.34-6.83v.13c1.09,0,2.24-.21,3.31-.67,1.06-.46,2.05-1.17,2.71-2.23,.43-.7,.69-1.56,.69-2.49v-6.21h-5.88Zm-18.34,8.26c-.4-.26-.7-.55-.9-.88-.2-.33-.31-.69-.32-1.17v-3.68h3.35v4.8c0,.62,.05,1.17,.12,1.68-.82-.1-1.65-.36-2.26-.76Zm21.68-2.05c0,.48-.12,.84-.32,1.17-.2,.33-.5,.63-.9,.88-.61,.4-1.44,.66-2.26,.76,.07-.52,.12-1.07,.12-1.68v-4.8h3.35c0,.89,0,2.18,0,3.68Z"/></g></g></g></svg>