<?xml version="1.0" encoding="utf-8"?>
<!-- Generator: Adobe Illustrator 26.5.0, SVG Export Plug-In . SVG Version: 6.00 Build 0)  -->
<svg version="1.1" id="_レイヤー_2" xmlns="http://www.w3.org/2000/svg" xmlns:xlink="http://www.w3.org/1999/xlink" x="0px"
	 y="0px" viewBox="0 0 11.1 14.3" style="enable-background:new 0 0 11.1 14.3;" xml:space="preserve">
<style type="text/css">
	.st0{fill:#891C23;}
</style>
<path class="st0" d="M6,0H0v14.3h11.1V4.9L6,0z M6.5,1.9l2.9,2.7H6.5V1.9z M1,13.3V1h4.5v4.6h4.6v7.7H1z"/>
<path class="st0" d="M3,7.5H2.2v4h0H3c0.3,0,0.6-0.1,0.8-0.3s0.3-0.5,0.3-0.8V8.5c0-0.3-0.1-0.6-0.3-0.8C3.6,7.5,3.4,7.5,3,7.5z
	 M3.5,10.5c0,0.2,0,0.3-0.1,0.4C3.3,10.9,3.2,11,3,11H2.8V8H3c0.2,0,0.3,0,0.3,0.1c0.1,0.1,0.1,0.2,0.1,0.4V10.5z"/>
<path class="st0" d="M6.2,7.7C6.1,7.6,6,7.5,5.9,7.5S5.7,7.4,5.5,7.4c-0.1,0-0.2,0-0.4,0.1S5,7.6,4.9,7.7C4.8,7.7,4.7,7.8,4.6,8
	c0,0.1-0.1,0.3-0.1,0.4v2.1c0,0.2,0,0.3,0.1,0.4s0.1,0.2,0.2,0.3c0.1,0.1,0.2,0.2,0.3,0.2c0.1,0,0.2,0.1,0.4,0.1
	c0.1,0,0.2,0,0.3-0.1c0.1,0,0.2-0.1,0.3-0.2c0.1-0.1,0.2-0.2,0.2-0.3s0.1-0.3,0.1-0.4V8.4c0-0.2,0-0.3-0.1-0.4S6.3,7.7,6.2,7.7z
	 M5.9,10.5c0,0.1,0,0.2-0.1,0.3s-0.2,0.1-0.3,0.1c-0.1,0-0.2,0-0.3-0.1s-0.1-0.2-0.1-0.3V8.4c0-0.1,0-0.2,0.1-0.3S5.4,8,5.5,8
	c0.1,0,0.2,0,0.3,0.1s0.1,0.2,0.1,0.3V10.5z"/>
<path class="st0" d="M8.6,7.7C8.4,7.5,8.2,7.4,7.9,7.4c-0.1,0-0.3,0-0.4,0.1S7.3,7.6,7.2,7.7C7.2,7.8,7.1,7.9,7,8C7,8.1,7,8.2,7,8.3
	v2.2c0,0.2,0,0.3,0.1,0.5s0.1,0.2,0.2,0.3c0.1,0.1,0.2,0.1,0.3,0.2c0.1,0,0.2,0,0.3,0c0.1,0,0.2,0,0.4-0.1c0.1-0.1,0.2-0.1,0.3-0.2
	c0.1-0.1,0.1-0.2,0.2-0.3c0-0.1,0.1-0.2,0.1-0.4v-0.2l0,0H8.2v0.2c0,0.1,0,0.1,0,0.2c0,0,0,0.1-0.1,0.1c0,0-0.1,0-0.1,0.1
	c0,0-0.1,0-0.1,0c-0.1,0-0.2,0-0.3-0.1c0-0.1-0.1-0.2-0.1-0.3V8.5c0-0.1,0-0.2,0.1-0.3C7.7,8.1,7.8,8,7.9,8c0.1,0,0.2,0,0.3,0.1
	c0.1,0.1,0.1,0.2,0.1,0.3v0.2h0.6V8.4c0-0.1,0-0.3-0.1-0.4C8.7,7.9,8.7,7.8,8.6,7.7z"/>
</svg>
