<?xml version="1.0" encoding="utf-8"?>
<!-- Generator: Adobe Illustrator 26.5.0, SVG Export Plug-In . SVG Version: 6.00 Build 0)  -->
<svg version="1.1" id="_レイヤー_2" xmlns="http://www.w3.org/2000/svg" xmlns:xlink="http://www.w3.org/1999/xlink" x="0px"
	 y="0px" viewBox="0 0 11.1 14.3" style="enable-background:new 0 0 11.1 14.3;" xml:space="preserve">
<style type="text/css">
	.st0{fill:#891C23;}
</style>
<g>
	<path class="st0" d="M7.8,9.6L7.8,9.6c-0.2,0-0.8,0-1.4,0.1C6,9.4,5.7,8.9,5.5,8.6c0.7-2,0.3-2.6-0.3-2.6c-0.5,0-0.7,0.5-0.7,1
		c0,0.3,0.3,0.9,0.5,1.4c-0.2,0.5-0.5,1.3-0.8,1.8c-0.4,0.1-0.7,0.2-0.9,0.3c-1.1,0.5-1.2,1.2-1,1.5c0.5,0.6,1.4,0.1,2.4-1.6
		c0.7-0.2,1.5-0.4,1.6-0.4c0,0,0,0,0,0c0.5,0.4,1,0.9,1.5,1c0.7,0.1,1-0.4,1-0.7C8.8,10,8.7,9.6,7.8,9.6z M3.5,11.4
		c-0.3,0.3-0.7,0.6-0.9,0.5c-0.2-0.1-0.2-0.4,0.2-0.8c0.4-0.3,0.9-0.5,1-0.5c0.1,0,0.1,0,0.1,0C4,10.8,3.8,11.1,3.5,11.4z M4.8,7
		L4.8,7c0-0.3,0-0.7,0.3-0.7c0.3,0,0.4,0.3,0.3,0.8S5.2,8,5.2,8c0,0-0.1-0.1-0.1-0.1C5,7.7,4.8,7.3,4.8,7z M4.9,10.1
		C5,9.8,5.4,8.9,5.4,8.9C5.5,9,6.1,9.8,6.1,9.8S5.1,10,4.9,10.1z M7.7,10.5C7.3,10.5,6.7,10,6.7,10c-0.1,0,0.7-0.1,1-0.1
		c0.4,0,0.6,0.2,0.6,0.4C8.3,10.4,8.1,10.6,7.7,10.5z"/>
	<path class="st0" d="M6,0H0v14.3h11.1V4.9L6,0z M6.5,1.9l2.9,2.7H6.5V1.9z M1,13.3V1h4.5v4.6h4.6v7.7H1z"/>
</g>
</svg>
