<?xml version="1.0" encoding="UTF-8"?><svg id="_レイヤー_2" xmlns="http://www.w3.org/2000/svg" viewBox="0 0 36 36"><defs><style>.cls-1{fill:#fff;}.cls-2{fill:#7d1a21;}</style></defs><g id="_レイヤー_1-2"><g><path class="cls-2" d="M36,18c0,9.94-8.06,18-18,18S0,27.94,0,18,8.06,0,18,0s18,8.06,18,18Z"/><path class="cls-1" d="M14.69,25.25c6.73,0,10.42-5.58,10.42-10.42,0-.16,0-.32-.01-.47,.71-.52,1.34-1.16,1.83-1.9-.66,.29-1.36,.49-2.1,.58,.76-.45,1.34-1.17,1.61-2.03-.71,.42-1.49,.72-2.32,.89-.67-.71-1.62-1.16-2.67-1.16-2.02,0-3.66,1.64-3.66,3.66,0,.29,.03,.57,.09,.83-3.04-.15-5.74-1.61-7.55-3.82-.31,.54-.5,1.17-.5,1.84,0,1.27,.65,2.39,1.63,3.05-.6-.02-1.16-.18-1.66-.46,0,.02,0,.03,0,.05,0,1.77,1.26,3.25,2.94,3.59-.31,.08-.63,.13-.97,.13-.24,0-.47-.02-.69-.07,.47,1.45,1.82,2.51,3.42,2.54-1.25,.98-2.83,1.57-4.55,1.57-.3,0-.59-.02-.87-.05,1.62,1.04,3.54,1.64,5.61,1.64"/></g></g></svg>