<?xml version="1.0" encoding="UTF-8"?><svg id="_レイヤー_2" xmlns="http://www.w3.org/2000/svg" viewBox="0 0 36 36"><defs><style>.cls-1{fill:#fff;}.cls-2{fill:#7d1a21;}</style></defs><g id="_レイヤー_1-2"><g><path class="cls-2" d="M18,0C8.06,0,0,8.06,0,18s8.06,18,18,18,18-8.06,18-18S27.94,0,18,0Z"/><path class="cls-1" d="M15.57,11.87l-2.76,2.75c-.08,.08-.13,.19-.13,.31v9.33h10.63V11.74h-7.44c-.12,0-.22,.04-.31,.13Zm.68,2.15c0-.23,.01-.31,.05-.43,.1-.33,.42-.57,.8-.57s.71,.25,.8,.57c.04,.12,.05,.2,.05,.43v1.98c0,.12,0,.24-.02,.35-.07,.3-.34,.57-.64,.63-.11,.02-.23,.02-.35,.02h-1.98c-.23,0-.31-.01-.43-.05-.32-.1-.58-.42-.58-.8s.25-.71,.58-.8c.12-.04,.2-.05,.43-.05h1.28v-1.28Zm9.19,11.18c0,.14,0,.21-.01,.26-.05,.45-.46,.86-.91,.9-.05,0-.13,.01-.26,.01H11.74c-.14,0-.21,0-.26-.01-.45-.05-.86-.45-.91-.9,0-.05-.01-.13-.01-.26V14.64c0-.1,0-.19,.01-.26,.04-.4,.22-.75,.5-1.03l3.22-3.21c.28-.28,.64-.47,1.03-.5,.07,0,.16-.01,.26-.01h8.66c.14,0,.21,0,.26,.01,.45,.05,.86,.46,.91,.9,0,.05,.01,.13,.01,.26v14.39Z"/></g></g></svg>