<?xml version="1.0" encoding="UTF-8"?><svg id="_レイヤー_2" xmlns="http://www.w3.org/2000/svg" viewBox="0 0 36 36"><defs><style>.cls-1{fill:#fff;}.cls-2{fill:#7d1a21;}</style></defs><g id="_レイヤー_1-2"><g><path class="cls-2" d="M18,0C8.06,0,0,8.06,0,18s8.06,18,18,18,18-8.06,18-18S27.94,0,18,0Z"/><path class="cls-1" d="M25.28,11.24c-1.36-.64-2.81-1.1-4.33-1.36-.19,.34-.4,.79-.55,1.15-1.61-.24-3.21-.24-4.8,0-.15-.36-.37-.81-.56-1.15-1.52,.26-2.97,.73-4.33,1.36-2.74,4.14-3.48,8.18-3.11,12.16,1.82,1.36,3.58,2.18,5.31,2.72,.43-.59,.81-1.21,1.14-1.87-.63-.24-1.22-.53-1.79-.87,.15-.11,.3-.23,.44-.35,3.45,1.62,7.2,1.62,10.61,0,.14,.12,.29,.24,.44,.35-.57,.34-1.17,.64-1.79,.87,.33,.66,.71,1.28,1.14,1.87,1.73-.54,3.49-1.36,5.31-2.72,.44-4.62-.74-8.62-3.12-12.17Zm-10.76,9.72c-1.04,0-1.89-.97-1.89-2.15s.83-2.15,1.89-2.15,1.9,.97,1.89,2.15c0,1.18-.83,2.15-1.89,2.15Zm6.97,0c-1.04,0-1.89-.97-1.89-2.15s.83-2.15,1.89-2.15,1.9,.97,1.89,2.15c0,1.18-.83,2.15-1.89,2.15Z"/></g></g></svg>