<?xml version="1.0" encoding="utf-8"?>
<!-- Generator: Adobe Illustrator 26.5.0, SVG Export Plug-In . SVG Version: 6.00 Build 0)  -->
<svg version="1.1" id="_レイヤー_2" xmlns="http://www.w3.org/2000/svg" xmlns:xlink="http://www.w3.org/1999/xlink" x="0px"
	 y="0px" viewBox="0 0 100 100" style="enable-background:new 0 0 100 100;" xml:space="preserve">
<style type="text/css">
	.st0{fill:#891C23;}
</style>
<g id="_レイヤー_1-2">
	<path class="st0" d="M83.8,54.3l-6.6,5.8L58.8,76.5c-1.2,1-2.7,1.6-4.2,1.6c-0.5,0-0.9,0-1.3-0.1l-10.6-2.3l-12.8-2.8l-9-2
		l-1.3-0.3c-0.4-0.1-0.8-0.3-1.1-0.6c-0.5-0.4-0.9-0.8-1.2-1.4s-0.4-1.2-0.4-1.8c0-0.4,0.1-0.8,0.2-1.2c0.1-0.4,0.3-0.8,0.6-1.1
		c0.4-0.5,0.9-0.9,1.4-1.2c0.5-0.3,1.2-0.4,1.8-0.4H21l7,1.5l8.9,2l15.5,3.4c0.8,0.2,1.5,0.2,2.3,0.2c0.4,0,0.9,0,1.3-0.1
		c2.1-0.2,4.2-1.1,5.8-2.6l0.5-0.5l18.4-16.3l6.1-5.4c0.8-0.7,1-1.8,0.5-2.7c-0.1-0.1-0.2-0.3-0.3-0.4c-0.8-0.9-2.2-1-3.1-0.2
		l-6.6,5.8L58.8,63.9c-1.2,1-2.7,1.6-4.2,1.6c-0.5,0-0.9,0-1.3-0.1L42.7,63l-12.8-2.8l-9-2h0v0h-0.1l-1.3-0.3c-0.1,0-0.1,0-0.2-0.1
		c-0.2-0.1-0.3-0.1-0.5-0.2c-0.1,0-0.2-0.1-0.4-0.2c-0.5-0.4-0.9-0.8-1.2-1.4c-0.3-0.5-0.4-1.2-0.4-1.8c0-0.4,0.1-0.8,0.2-1.2
		c0.1-0.4,0.3-0.8,0.6-1.1c0.4-0.5,0.9-0.9,1.4-1.2c0.5-0.3,1.2-0.4,1.8-0.4c0.1,0,0.2,0,0.3,0l4.9,1.1l4.3,0.9l21.4,4.6
		c2.7,0.6,5.4-0.1,7.5-1.9l13.2-11.6l7.9-6.9l5.6-4.9c1.2-1.1,1.7-2.7,1.3-4.3c-0.4-1.6-1.7-2.8-3.2-3.1l-1.7-0.4L70.2,21l-15.4-3.3
		c-2.7-0.6-5.4,0.1-7.5,1.9L26.6,37.8l-6.2,5.5L15,48c-0.2,0.2-0.4,0.5-0.6,0.8c-0.1,0.1-0.2,0.2-0.3,0.4c-0.5,0.7-0.9,1.5-1.2,2.5
		c-0.3,0.8-0.4,1.7-0.4,2.5c0,1.8,0.6,3.5,1.6,5c0.3,0.5,0.7,0.9,1.1,1.2l0,0l-0.3,0.2c-0.2,0.2-0.4,0.5-0.6,0.8
		c-0.1,0.1-0.2,0.2-0.3,0.3c-0.5,0.7-0.9,1.5-1.2,2.5c-0.3,0.8-0.4,1.7-0.4,2.5c0,1.8,0.6,3.5,1.6,5c0.5,0.7,1.1,1.4,1.9,1.9
		c0.7,0.5,1.6,1,2.5,1.2l0.1,0l9.4,2.1l8.9,1.9l15.5,3.4c0.8,0.2,1.5,0.2,2.3,0.2c2.6,0,5.1-0.9,7.1-2.7l0.5-0.5L80.7,63l6.1-5.4
		c0.9-0.8,1-2.2,0.2-3.2C86.2,53.5,84.8,53.4,83.8,54.3L83.8,54.3z"/>
</g>
</svg>
