<?xml version="1.0" encoding="utf-8"?>
<!-- Generator: Adobe Illustrator 26.5.0, SVG Export Plug-In . SVG Version: 6.00 Build 0)  -->
<svg version="1.1" id="_レイヤー_2" xmlns="http://www.w3.org/2000/svg" xmlns:xlink="http://www.w3.org/1999/xlink" x="0px"
	 y="0px" viewBox="0 0 100 100" style="enable-background:new 0 0 100 100;" xml:space="preserve">
<style type="text/css">
	.st0{fill:#891C23;}
</style>
<g id="_レイヤー_1-2">
	<g>
		<g>
			<path class="st0" d="M28,27.6c3.4,0,6.1-2.7,6.1-6.1s-2.7-6.1-6.1-6.1s-6.1,2.7-6.1,6.1S24.6,27.6,28,27.6z"/>
			<path class="st0" d="M48.4,40.9l9.8-4.7c1.3-0.6,1.9-2.1,1.4-3.4c-0.6-1.3-2.1-1.9-3.4-1.4l-8.8,3l-8-2.8
				c-1.5-0.5-3.1-0.8-4.7-0.9l-6.2-0.1c-6.6,0-12.5,2.2-13.9,9.5l-4.5,18.6c-0.3,1.4,0.6,2.8,2,3.1c1.4,0.3,2.8-0.6,3.1-2l4.7-12.4
				l1.2,36.9c0,1.7,1.4,3.1,3.1,3.1c1.7,0,3.1-1.4,3.1-3.1l1.2-22l1.2,22c0,1.7,1.4,3.1,3.1,3.1c1.7,0,3.1-1.4,3.1-3.1l1.7-44.9l7,2
				C45.9,41.8,47.2,41.5,48.4,40.9L48.4,40.9z"/>
			<path class="st0" d="M45.5,15.9h39.6V48H45.5v-2.7c-0.5,0-1,0-1.5-0.2l-0.2,0l-1.7-0.5v6.7h46.3V12.5H42.1v16.2l3.4,1.2
				L45.5,15.9L45.5,15.9z"/>
			<path class="st0" d="M46.5,66c0,3.4,2.7,6.1,6.1,6.1s6.1-2.7,6.1-6.1c0-3.3-2.7-6.1-6.1-6.1S46.5,62.7,46.5,66z"/>
			<path class="st0" d="M52.6,75.1c-5.7,0-10.8,1.9-12,8.2l0.1,4.2h23.8l0.1-4.2C63.3,77,58.3,75.1,52.6,75.1L52.6,75.1z"/>
			<path class="st0" d="M71.9,66c0,3.4,2.7,6.1,6.1,6.1S84,69.4,84,66c0-3.3-2.7-6.1-6.1-6.1C74.6,60,71.9,62.7,71.9,66z"/>
			<path class="st0" d="M77.9,75.1c-5.7,0-10.8,1.9-12,8.2l0.1,4.2h23.8l0.1-4.2C88.7,77,83.6,75.1,77.9,75.1L77.9,75.1z"/>
		</g>
		<path class="st0" d="M78.3,29c0,5.8-6.7,12.4-6.7,12.4S65,34.9,65,29c0-3.7,3-6.6,6.6-6.6C75.3,22.4,78.3,25.4,78.3,29z
			 M71.6,26.7c-1.3,0-2.3,1-2.3,2.3s1,2.3,2.3,2.3c1.3,0,2.3-1,2.3-2.3S72.9,26.7,71.6,26.7z"/>
	</g>
</g>
</svg>
