<?xml version="1.0" encoding="utf-8"?>
<!-- Generator: Adobe Illustrator 26.5.0, SVG Export Plug-In . SVG Version: 6.00 Build 0)  -->
<svg version="1.1" id="_レイヤー_2" xmlns="http://www.w3.org/2000/svg" xmlns:xlink="http://www.w3.org/1999/xlink" x="0px"
	 y="0px" viewBox="0 0 100 100" style="enable-background:new 0 0 100 100;" xml:space="preserve">
<style type="text/css">
	.st0{fill:#891C23;}
</style>
<g id="_レイヤー_1-2">
	<path class="st0" d="M17.4,13.9v72.2h6.9v-7.3h51.4v7.3h6.9V13.9H17.4z M75.7,37.1v15.6h-4.3v-11h-4.3v11H65v-11h-4.3v11h-2.1v-11
		h-4.3v11h-2.1v-11h-4.3v11h-2.1v-11h-4.3v11h-2.1v-11H35v11h-2.1v-11h-4.3v11h-4.3V37.1H75.7z M75.7,72h-4.3V61h-4.3v11H65V61h-4.3
		v11h-2.1V61h-4.3v11h-2.1V61h-4.3v11h-2.1V61h-4.3v11h-2.1V61H35v11h-2.1V61h-4.3v11h-4.3V56.4h51.4V72z M75.7,33.5h-4.3v-11h-4.3
		v11H65v-11h-4.3v11h-2.1v-11h-4.3v11h-2.1v-11h-4.3v11h-5.5l4.2-10.1l-4-1.6l-4.9,11.8H24.3V18h51.4V33.5z"/>
</g>
</svg>
