<?xml version="1.0" encoding="utf-8"?>
<!-- Generator: Adobe Illustrator 26.5.0, SVG Export Plug-In . SVG Version: 6.00 Build 0)  -->
<svg version="1.1" id="_レイヤー_2" xmlns="http://www.w3.org/2000/svg" xmlns:xlink="http://www.w3.org/1999/xlink" x="0px"
	 y="0px" viewBox="0 0 100 100" style="enable-background:new 0 0 100 100;" xml:space="preserve">
<style type="text/css">
	.st0{fill:#7D1A21;}
</style>
<g id="_レイヤー_1-2">
	<g>
		<path class="st0" d="M15.5,57.7c4.3,0,7.8-3.5,7.8-7.8s-3.5-7.8-7.8-7.8s-7.8,3.5-7.8,7.8S11.2,57.7,15.5,57.7z"/>
		<path class="st0" d="M15.5,60.4c-4.2,0-7.7,3.4-7.7,7.7v9.5h9.1l5.9-11.9C21.8,62.6,18.9,60.4,15.5,60.4z"/>
		<path class="st0" d="M28.4,42.7c3.9,0,7-3.1,7-7s-3.1-7-7-7s-7,3.1-7,7C21.3,39.6,24.5,42.7,28.4,42.7z"/>
		<path class="st0" d="M21.5,59v1.5h3.8l7-14.2c-1.1-0.8-2.4-1.2-3.9-1.2c-1,0-1.9,0.2-2.8,0.6c0.5,1.3,0.8,2.7,0.8,4.2
			C26.4,53.7,24.5,57.1,21.5,59L21.5,59z"/>
		<path class="st0" d="M49.2,29.2c3.9,0,7-3.1,7-7s-3.1-7-7-7s-7,3.1-7,7S45.3,29.2,49.2,29.2z"/>
		<path class="st0" d="M49.2,31.5c-3.8,0-6.9,3.1-6.9,6.9v3H56v-3C56,34.6,53,31.5,49.2,31.5z"/>
		<path class="st0" d="M84.5,57.7c4.3,0,7.8-3.5,7.8-7.8s-3.5-7.8-7.8-7.8s-7.8,3.5-7.8,7.8S80.1,57.7,84.5,57.7z"/>
		<path class="st0" d="M84.5,60.4c-3.4,0-6.3,2.2-7.3,5.2l5.8,11.9h9.1v-9.5C92.1,63.8,88.7,60.4,84.5,60.4z"/>
		<path class="st0" d="M71.6,42.7c3.9,0,7-3.1,7-7s-3.1-7-7-7c-3.9,0-7,3.1-7,7C64.6,39.6,67.8,42.7,71.6,42.7z"/>
		<path class="st0" d="M71.6,45.1c-1.5,0-2.8,0.4-3.9,1.2l7,14.2h3.8V59c-3-2-4.9-5.3-4.9-9.1c0-1.5,0.3-2.9,0.8-4.2
			C73.6,45.3,72.6,45.1,71.6,45.1L71.6,45.1z"/>
		<path class="st0" d="M36.8,44L18.7,81v3.9h62.7V81L63.2,44H36.8z M40.9,73.6h-10l2.9-6.8h8.3C42.1,66.8,40.9,73.6,40.9,73.6z
			 M44.1,59.2h-7.9l2.3-5.4h6.5L44.1,59.2z M68.9,73.6h-10l-1.2-6.8H66L68.9,73.6L68.9,73.6z M55.6,59.2l-0.9-5.4h6.5l2.3,5.4H55.6z
			"/>
	</g>
</g>
</svg>
